<?xml version="1.0" encoding="UTF-8" standalone="no"?>
<!-- Created with Inkscape (http://www.inkscape.org/) -->

<svg
   width="200.6651mm"
   height="152.89027mm"
   viewBox="0 0 200.6651 152.89027"
   version="1.1"
   id="svg203"
   sodipodi:docname="fig-foldl-1.svg"
   inkscape:version="1.2.2 (732a01da63, 2022-12-09)"
   xmlns:inkscape="http://www.inkscape.org/namespaces/inkscape"
   xmlns:sodipodi="http://sodipodi.sourceforge.net/DTD/sodipodi-0.dtd"
   xmlns="http://www.w3.org/2000/svg"
   xmlns:svg="http://www.w3.org/2000/svg">
  <sodipodi:namedview
     id="namedview205"
     pagecolor="#ffffff"
     bordercolor="#666666"
     borderopacity="1.0"
     inkscape:showpageshadow="2"
     inkscape:pageopacity="0.0"
     inkscape:pagecheckerboard="0"
     inkscape:deskcolor="#d1d1d1"
     inkscape:document-units="mm"
     showgrid="false"
     inkscape:zoom="1.2659667"
     inkscape:cx="268.96443"
     inkscape:cy="248.42676"
     inkscape:current-layer="layer1" />
  <defs
     id="defs200" />
  <g
     inkscape:label="Layer 1"
     inkscape:groupmode="layer"
     id="layer1"
     transform="translate(-44.719076,-157.92787)">
    <g
       id="text11445"
       style="font-size:5.64444px;line-height:1.25;font-family:'Roboto Mono';-inkscape-font-specification:'Roboto Mono';stroke-width:0.264583" />
    <g
       aria-label="(foldl * 1 '(3 2 5 6))"
       id="text11206"
       style="font-size:5.64444px;line-height:1.25;font-family:'Roboto Mono';-inkscape-font-specification:'Roboto Mono';fill:#332255;stroke-width:0.264583"
       transform="translate(0,133.29274)">
      <path
         d="m 61.182844,52.912733 v 0.02756 q 0,0.394119 0.06063,0.741384 0.06339,0.347266 0.168121,0.642166 0.101974,0.297656 0.237022,0.54019 0.137804,0.245291 0.289388,0.43546 0.148828,0.192925 0.300412,0.325217 0.15434,0.135047 0.292144,0.212217 l 0.107487,-0.311436 q -0.112999,-0.09095 -0.225998,-0.220486 -0.110243,-0.126779 -0.214974,-0.292144 -0.101975,-0.173632 -0.195681,-0.394118 -0.09371,-0.21773 -0.165365,-0.474045 -0.06615,-0.253559 -0.104731,-0.553971 -0.03858,-0.300412 -0.03858,-0.644921 v -0.03858 q 0,-0.35829 0.04134,-0.669727 0.04134,-0.311436 0.115756,-0.570507 0.07717,-0.286632 0.192925,-0.52641 0.115755,-0.242535 0.242534,-0.421679 0.08544,-0.115756 0.173633,-0.209462 0.09095,-0.09371 0.179145,-0.159852 l -0.107487,-0.336242 q -0.137804,0.07717 -0.289388,0.212218 -0.151584,0.135048 -0.300412,0.325217 -0.151584,0.190169 -0.289388,0.43546 -0.135047,0.24529 -0.239778,0.54019 -0.104731,0.297656 -0.168121,0.644922 -0.06063,0.347265 -0.06063,0.741384 z"
         id="path13045" />
      <path
         d="m 64.826374,54.541573 h 0.51263 v -2.587954 h 1.149283 V 51.5595 h -1.149283 v -0.209461 q 0,-0.187414 0.04685,-0.327973 0.04961,-0.14056 0.143316,-0.228754 0.08819,-0.08544 0.220486,-0.12678 0.135047,-0.0441 0.30868,-0.0441 0.170877,0 0.319705,0.03032 0.151584,0.02756 0.264583,0.06615 l 0.06063,-0.42168 q -0.07166,-0.01929 -0.140559,-0.03307 -0.0689,-0.01654 -0.137804,-0.03032 -0.104731,-0.01929 -0.212218,-0.03032 -0.107487,-0.01378 -0.21773,-0.01378 -0.264583,0 -0.479557,0.07441 -0.214973,0.07441 -0.366557,0.220486 -0.154341,0.146072 -0.239779,0.363802 -0.08268,0.214974 -0.08268,0.501606 V 51.5595 h -0.82131 v 0.394119 h 0.82131 z"
         id="path13047" />
      <path
         d="m 67.309597,53.022976 v 0.06063 q 0,0.322461 0.09371,0.598068 0.09371,0.275608 0.270096,0.479557 0.173632,0.20395 0.424435,0.319705 0.253559,0.115755 0.570507,0.115755 0.314193,0 0.564996,-0.115755 0.250802,-0.115755 0.427191,-0.319705 0.173633,-0.203949 0.267339,-0.479557 0.09371,-0.275607 0.09371,-0.598068 v -0.06063 q 0,-0.322461 -0.09371,-0.598068 -0.09371,-0.278364 -0.267339,-0.482313 -0.176389,-0.20395 -0.429947,-0.319705 -0.250803,-0.118511 -0.567752,-0.118511 -0.314192,0 -0.564995,0.118511 -0.250803,0.115755 -0.424435,0.319705 -0.176389,0.203949 -0.270096,0.482313 -0.09371,0.275607 -0.09371,0.598068 z m 0.509874,0.06063 v -0.06063 q 0,-0.21773 0.05237,-0.416168 0.05236,-0.201193 0.159852,-0.352777 0.104731,-0.151584 0.261827,-0.239779 0.157097,-0.09095 0.369314,-0.09095 0.212218,0 0.369314,0.09095 0.159853,0.08819 0.267339,0.239779 0.104731,0.151584 0.157097,0.352777 0.05512,0.198438 0.05512,0.416168 v 0.06063 q 0,0.220486 -0.05237,0.42168 -0.05237,0.198437 -0.157096,0.350021 -0.107487,0.151584 -0.26734,0.239779 -0.157096,0.08819 -0.366558,0.08819 -0.212217,0 -0.37207,-0.08819 -0.159852,-0.08819 -0.264583,-0.239779 -0.107487,-0.151584 -0.159852,-0.350021 -0.05237,-0.201194 -0.05237,-0.42168 z"
         id="path13049" />
      <path
         d="m 70.920054,50.308242 v 0.443728 h 1.014235 v 3.348631 h -1.014235 v 0.440972 h 2.497003 v -0.440972 h -0.972894 v -3.792359 z"
         id="path13051" />
      <path
         d="m 74.130881,53.025732 v 0.05788 q 0,0.319705 0.08544,0.598068 0.08544,0.275608 0.239779,0.479557 0.15434,0.20395 0.37207,0.319705 0.220486,0.115755 0.490581,0.115755 0.275607,0 0.482313,-0.09371 0.206705,-0.09371 0.355533,-0.275608 l 0.02205,0.314193 h 0.468533 v -4.23333 H 76.137303 V 51.8544 q -0.146072,-0.170876 -0.347265,-0.259071 -0.198438,-0.09095 -0.465777,-0.09095 -0.272851,0 -0.493337,0.112999 -0.220486,0.112999 -0.374826,0.314192 -0.157097,0.201194 -0.242535,0.482313 -0.08268,0.278364 -0.08268,0.611849 z m 0.509874,0.05788 v -0.05788 q 0,-0.21773 0.04685,-0.413411 0.04685,-0.198438 0.146072,-0.350022 0.09646,-0.148828 0.248046,-0.237022 0.154341,-0.0882 0.369314,-0.0882 0.250803,0 0.418924,0.118512 0.16812,0.115755 0.267339,0.297656 v 1.383549 q -0.09922,0.195681 -0.267339,0.311436 -0.168121,0.115755 -0.424436,0.115755 -0.212217,0 -0.363802,-0.08544 -0.151584,-0.08819 -0.248046,-0.237022 -0.09922,-0.148828 -0.146072,-0.34451 -0.04685,-0.195681 -0.04685,-0.413411 z"
         id="path13053" />
      <path
         d="m 77.694485,50.308242 v 0.443728 h 1.014236 v 3.348631 h -1.014236 v 0.440972 h 2.497004 v -0.440972 h -0.972895 v -3.792359 z"
         id="path13055" />
      <path
         d="m 85.389445,52.019765 -0.719335,0.901236 0.402387,0.292144 0.584287,-0.975651 0.5898,1.000455 0.402387,-0.303168 -0.705555,-0.892968 1.052821,-0.259071 -0.148828,-0.490581 -1.000455,0.413411 0.07993,-1.176844 h -0.490581 l 0.0689,1.160308 -1.005967,-0.416168 -0.148828,0.482313 z"
         style="fill:#f9accc"
         id="path13057" />
      <path
         d="m 92.817064,54.541573 v -4.012845 h -0.04134 l -1.518597,0.584288 v 0.465777 l 1.050064,-0.399631 v 3.362411 z"
         id="path13059" />
      <path
         d="m 99.25801,50.614167 v -0.305925 h -0.435459 v 0.350022 l -0.0028,0.970138 h 0.380338 z"
         style="fill:#675ad5"
         id="path13061" />
      <path
         d="m 101.82943,52.912733 v 0.02756 q 0,0.394119 0.0606,0.741384 0.0634,0.347266 0.16812,0.642166 0.10198,0.297656 0.23702,0.54019 0.13781,0.245291 0.28939,0.43546 0.14883,0.192925 0.30041,0.325217 0.15434,0.135047 0.29215,0.212217 l 0.10748,-0.311436 q -0.11299,-0.09095 -0.22599,-0.220486 -0.11025,-0.126779 -0.21498,-0.292144 -0.10197,-0.173632 -0.19568,-0.394118 -0.0937,-0.21773 -0.16536,-0.474045 -0.0661,-0.253559 -0.10473,-0.553971 -0.0386,-0.300412 -0.0386,-0.644921 v -0.03858 q 0,-0.35829 0.0413,-0.669727 0.0413,-0.311436 0.11576,-0.570507 0.0772,-0.286632 0.19292,-0.52641 0.11576,-0.242535 0.24254,-0.421679 0.0854,-0.115756 0.17363,-0.209462 0.0909,-0.09371 0.17914,-0.159852 l -0.10748,-0.336242 q -0.13781,0.07717 -0.28939,0.212218 -0.15158,0.135048 -0.30041,0.325217 -0.15159,0.190169 -0.28939,0.43546 -0.13505,0.24529 -0.23978,0.54019 -0.10473,0.297656 -0.16812,0.644922 -0.0606,0.347265 -0.0606,0.741384 z"
         style="fill:#675ad5"
         id="path13063" />
      <path
         d="m 105.30759,52.28986 v 0.413411 h 0.3638 q 0.19017,0 0.34727,0.0441 0.15985,0.0441 0.27285,0.135048 0.11024,0.09095 0.17088,0.228754 0.0634,0.135048 0.0634,0.322461 0,0.190169 -0.0551,0.330729 -0.0524,0.137803 -0.15159,0.23151 -0.0992,0.09371 -0.23978,0.14056 -0.14056,0.0441 -0.31419,0.0441 -0.17363,0 -0.31695,-0.04961 -0.14056,-0.04961 -0.23978,-0.140559 -0.0992,-0.09095 -0.15434,-0.220486 -0.0524,-0.129536 -0.0524,-0.286632 h -0.50988 q 0,0.264583 0.0992,0.471289 0.10198,0.206705 0.27285,0.350021 0.17088,0.143316 0.40239,0.21773 0.23427,0.07441 0.49885,0.07441 0.2701,0 0.50161,-0.07717 0.23426,-0.07993 0.40514,-0.23151 0.17088,-0.148828 0.26734,-0.366558 0.0965,-0.21773 0.0965,-0.49885 0,-0.137803 -0.0331,-0.278363 -0.0303,-0.14056 -0.10749,-0.267339 -0.0799,-0.12678 -0.21222,-0.228754 -0.12953,-0.101975 -0.32521,-0.165365 0.1626,-0.0689 0.27836,-0.170877 0.11851,-0.10473 0.19293,-0.223242 0.0744,-0.115755 0.11024,-0.239778 0.0358,-0.124023 0.0358,-0.239778 0,-0.278364 -0.0882,-0.490582 -0.0882,-0.212217 -0.24804,-0.355533 -0.15986,-0.143316 -0.3831,-0.214974 -0.22324,-0.07441 -0.49334,-0.07441 -0.27836,0 -0.50711,0.08819 -0.226,0.08544 -0.38861,0.234267 -0.16261,0.151584 -0.25356,0.355533 -0.0882,0.201194 -0.0882,0.429948 h 0.51263 q 0,-0.157096 0.0524,-0.283876 0.0524,-0.126779 0.14883,-0.21773 0.0937,-0.09095 0.226,-0.137803 0.13505,-0.04961 0.29765,-0.04961 0.16813,0 0.29766,0.0441 0.13229,0.04134 0.22049,0.12678 0.091,0.08819 0.1378,0.223242 0.0469,0.132291 0.0469,0.311436 0,0.151584 -0.0524,0.278364 -0.0524,0.126779 -0.15159,0.21773 -0.10197,0.09095 -0.2508,0.143315 -0.14607,0.05237 -0.339,0.05237 z"
         style="fill:#675ad5"
         id="path13065" />
      <path
         d="m 113.94789,54.541573 v -0.416168 h -2.01469 l 1.07762,-1.168575 q 0.15159,-0.165365 0.28663,-0.330729 0.13781,-0.168121 0.24254,-0.338997 0.10197,-0.170877 0.16261,-0.344509 0.0606,-0.176389 0.0606,-0.355534 0,-0.239779 -0.0854,-0.443728 -0.0827,-0.20395 -0.23978,-0.352778 -0.15709,-0.148828 -0.38585,-0.23151 -0.22599,-0.08544 -0.50987,-0.08544 -0.30868,0 -0.55122,0.09922 -0.23977,0.09922 -0.40514,0.267339 -0.16812,0.16812 -0.25631,0.394118 -0.0882,0.223242 -0.0882,0.476801 h 0.51263 q 0,-0.187413 0.0469,-0.338997 0.0496,-0.151584 0.14882,-0.259071 0.0965,-0.104731 0.24254,-0.162608 0.14883,-0.05788 0.35002,-0.05788 0.16536,0 0.2949,0.05788 0.13229,0.05512 0.226,0.151584 0.0909,0.09646 0.1378,0.228754 0.0496,0.129535 0.0496,0.278364 0,0.121267 -0.0303,0.237022 -0.0303,0.112999 -0.10197,0.239778 -0.0717,0.129536 -0.19017,0.28112 -0.11851,0.151584 -0.2949,0.347265 l -1.31465,1.46072 v 0.366558 z"
         style="fill:#675ad5"
         id="path13067" />
      <path
         d="m 118.44304,52.529638 0.4079,0.104731 q 0.0689,-0.06063 0.13229,-0.107487 0.0661,-0.04685 0.14056,-0.07993 0.0744,-0.03307 0.16537,-0.04961 0.0937,-0.01929 0.22048,-0.01929 0.19293,0 0.34176,0.0689 0.14883,0.0689 0.2508,0.187413 0.10198,0.121267 0.15434,0.283876 0.0551,0.162608 0.0551,0.350021 0,0.206706 -0.0496,0.374826 -0.0469,0.168121 -0.14056,0.286632 -0.0965,0.121267 -0.23702,0.187413 -0.14056,0.06339 -0.32246,0.06339 -0.32246,0 -0.52917,-0.176389 -0.20395,-0.176389 -0.2508,-0.518142 h -0.48507 q 0.0276,0.278364 0.13505,0.487825 0.11024,0.209462 0.28112,0.347266 0.16812,0.137803 0.38585,0.206705 0.21773,0.0689 0.46302,0.0689 0.3197,0 0.55673,-0.09922 0.23702,-0.101974 0.39412,-0.281119 0.15434,-0.176389 0.23151,-0.42168 0.0772,-0.24529 0.0772,-0.531922 0,-0.303168 -0.0827,-0.551215 -0.0827,-0.248046 -0.23702,-0.424435 -0.15434,-0.173633 -0.37483,-0.270095 -0.22048,-0.09646 -0.49884,-0.09646 -0.21773,0 -0.3831,0.05237 -0.16536,0.05237 -0.28387,0.121268 l 0.11299,-1.069357 h 1.62884 v -0.496094 h -2.05878 z"
         style="fill:#675ad5"
         id="path13069" />
      <path
         d="m 126.91522,50.525972 h -0.0441 q -0.42995,0 -0.76894,0.121268 -0.339,0.118511 -0.57602,0.355533 -0.34451,0.344509 -0.46302,0.829579 -0.11851,0.485069 -0.11851,0.986674 v 0.239779 q 0,0.292143 0.0882,0.584287 0.0882,0.289388 0.26734,0.507118 0.15985,0.198437 0.39412,0.322461 0.23426,0.124023 0.54294,0.124023 0.30593,0 0.53744,-0.107487 0.23426,-0.107487 0.39136,-0.2949 0.1571,-0.184657 0.23427,-0.432703 0.0799,-0.248047 0.0799,-0.529167 0,-0.24529 -0.0661,-0.482313 -0.0661,-0.237022 -0.20671,-0.424435 -0.14056,-0.187413 -0.35829,-0.300412 -0.21773,-0.115755 -0.51814,-0.115755 -0.1378,0 -0.26458,0.03307 -0.12403,0.03032 -0.23151,0.08268 -0.11025,0.05512 -0.20395,0.129535 -0.0937,0.07166 -0.16537,0.157096 0.0165,-0.264583 0.10473,-0.515385 0.0909,-0.250803 0.26459,-0.432704 0.16536,-0.173633 0.41892,-0.275608 0.25356,-0.10473 0.61736,-0.10473 h 0.0441 z m -0.66697,1.807985 q 0.18466,0 0.32246,0.07717 0.1378,0.07717 0.22875,0.206706 0.091,0.129535 0.13505,0.297656 0.0441,0.165364 0.0441,0.341753 0,0.198437 -0.0496,0.369314 -0.0469,0.16812 -0.14056,0.289388 -0.0965,0.121267 -0.23427,0.190169 -0.1378,0.0689 -0.31695,0.0689 -0.15434,0 -0.2949,-0.07166 -0.14056,-0.07441 -0.24804,-0.214974 -0.10749,-0.14056 -0.17088,-0.344509 -0.0634,-0.206706 -0.0634,-0.471289 v -0.170877 q 0.0469,-0.126779 0.12678,-0.23151 0.0799,-0.104731 0.18466,-0.179145 0.10473,-0.07441 0.226,-0.115755 0.12126,-0.04134 0.2508,-0.04134 z"
         style="fill:#675ad5"
         id="path13071" />
      <path
         d="m 130.28314,52.940293 v -0.02756 q 0,-0.42168 -0.0661,-0.757921 -0.0634,-0.338997 -0.1626,-0.628385 -0.10198,-0.300412 -0.23703,-0.54019 -0.13504,-0.239779 -0.28938,-0.43546 -0.14883,-0.190169 -0.30317,-0.325217 -0.15434,-0.135047 -0.29215,-0.212218 l -0.10748,0.311437 q 0.091,0.07441 0.18741,0.181901 0.0965,0.104731 0.18741,0.24529 0.11851,0.179145 0.23151,0.42168 0.113,0.239778 0.19293,0.542946 0.0551,0.212218 0.0992,0.515386 0.0469,0.303168 0.0469,0.675239 v 0.03858 q 0,0.327972 -0.0358,0.61736 -0.0331,0.286632 -0.0965,0.534679 -0.0606,0.267339 -0.1571,0.490581 -0.0937,0.225998 -0.19568,0.405143 -0.10749,0.176389 -0.226,0.311436 -0.11851,0.135048 -0.23426,0.220486 l 0.10748,0.311436 q 0.13781,-0.07717 0.28939,-0.212217 0.15434,-0.132292 0.30593,-0.325217 0.14882,-0.190169 0.28387,-0.43546 0.13781,-0.242534 0.24254,-0.54019 0.10473,-0.2949 0.16536,-0.642166 0.0634,-0.347265 0.0634,-0.741384 z"
         style="fill:#675ad5"
         id="path13073" />
      <path
         d="m 133.67036,52.940293 v -0.02756 q 0,-0.42168 -0.0661,-0.757921 -0.0634,-0.338997 -0.16261,-0.628385 -0.10197,-0.300412 -0.23702,-0.54019 -0.13505,-0.239779 -0.28939,-0.43546 -0.14883,-0.190169 -0.30317,-0.325217 -0.15434,-0.135047 -0.29214,-0.212218 l -0.10749,0.311437 q 0.0909,0.07441 0.18741,0.181901 0.0965,0.104731 0.18742,0.24529 0.11851,0.179145 0.23151,0.42168 0.113,0.239778 0.19292,0.542946 0.0551,0.212218 0.0992,0.515386 0.0469,0.303168 0.0469,0.675239 v 0.03858 q 0,0.327972 -0.0358,0.61736 -0.0331,0.286632 -0.0965,0.534679 -0.0606,0.267339 -0.15709,0.490581 -0.0937,0.225998 -0.19568,0.405143 -0.10749,0.176389 -0.226,0.311436 -0.11851,0.135048 -0.23427,0.220486 l 0.10749,0.311436 q 0.1378,-0.07717 0.28939,-0.212217 0.15434,-0.132292 0.30592,-0.325217 0.14883,-0.190169 0.28388,-0.43546 0.1378,-0.242534 0.24253,-0.54019 0.10473,-0.2949 0.16537,-0.642166 0.0634,-0.347265 0.0634,-0.741384 z"
         id="path13075" />
    </g>
    <g
       id="g15404"
       transform="translate(0,149.16775)">
      <g
         id="g9595"
         transform="translate(0,-37.041668)">
        <path
           style="fill:none;stroke:#f9accc;stroke-width:0.529167;stroke-linejoin:round;stroke-opacity:1"
           d="m 51.371463,101.09972 -6.387803,36.23329 h 41.041567 l 6.387731,-36.23313 z"
           id="path2139" />
        <path
           style="fill:none;stroke:#f9accc;stroke-width:0.529167;stroke-linejoin:round;stroke-opacity:1"
           d="m 44.983659,137.33301 v 2.11668 h 41.041568 v -2.11668 z"
           id="path2143" />
        <path
           style="fill:none;stroke:#f9accc;stroke-width:0.529167;stroke-linejoin:round;stroke-opacity:1"
           d="m 86.025227,139.44969 6.387729,-36.23313 v -2.11668 l -6.387729,36.23313 z"
           id="path2145" />
        <path
           style="fill:none;stroke:#f9accc;stroke-width:0.529167;stroke-linejoin:round;stroke-opacity:1"
           d="M 65.504443,137.33301 71.892209,101.0998"
           id="path2147" />
        <circle
           style="fill:none;stroke:#f9accc;stroke-width:0.529167;stroke-linejoin:round;stroke-opacity:1"
           id="path2203"
           cx="65.491211"
           cy="138.39134"
           r="1.0584227" />
      </g>
      <path
         id="rect489"
         style="fill:#ffffff;stroke:none;stroke-width:0.529167;stroke-linejoin:round;stroke-opacity:1"
         d="m 52.205756,64.404181 h 97.663874 l -6.08022,34.482672 H 46.125528 Z" />
      <path
         style="fill:none;fill-opacity:1;stroke:#332255;stroke-width:0.529;stroke-linecap:round;stroke-linejoin:round;stroke-dasharray:none;stroke-dashoffset:0;stroke-opacity:1"
         d="m 71.738386,64.404331 -19.532632,-1.5e-4 -6.080228,34.482672 h 19.532703"
         id="path11036" />
      <path
         style="fill:none;stroke:#5749d1;stroke-width:0.529167;stroke-linejoin:round;stroke-dasharray:1.05833, 0.529167;stroke-dashoffset:0;stroke-opacity:1"
         d="M 71.738388,64.404331 65.658229,98.886853"
         id="path2131" />
      <path
         style="fill:none;stroke:#5749d1;stroke-width:0.529167;stroke-linejoin:round;stroke-dasharray:1.05833, 0.529167;stroke-dashoffset:0;stroke-opacity:1"
         d="M 91.271088,64.404331 85.190929,98.886853"
         id="path2133" />
      <path
         style="fill:none;stroke:#5749d1;stroke-width:0.529167;stroke-linejoin:round;stroke-dasharray:1.05833, 0.529167;stroke-dashoffset:0;stroke-opacity:1"
         d="m 110.80309,64.404331 -6.08016,34.482522"
         id="path2135" />
      <path
         style="fill:none;stroke:#5749d1;stroke-width:0.529167;stroke-linejoin:round;stroke-dasharray:1.05833, 0.529167;stroke-dashoffset:0;stroke-opacity:1"
         d="m 130.33709,64.404331 -6.08016,34.482522"
         id="path2137" />
      <path
         id="path6771"
         style="fill:#ddeeff;fill-opacity:1;stroke:none;stroke-width:0.529;stroke-linejoin:round;stroke-dasharray:1.058, 0.529;stroke-dashoffset:0;stroke-opacity:1"
         d="m 47.386719,97.827453 c 5.794271,0 11.588541,0 17.382812,0 1.902344,-10.788404 3.804688,-21.576808 5.707031,-32.365212 -5.79427,0 -11.588541,0 -17.382812,0 -1.902344,10.788404 -3.804687,21.576808 -5.707031,32.365212 z" />
      <g
         aria-label="1"
         id="text5857"
         style="font-size:5.64444px;line-height:1.25;font-family:'Roboto Mono';-inkscape-font-specification:'Roboto Mono';text-align:center;text-anchor:middle;fill:#332255;stroke-width:0.264583">
        <path
           d="m 58.655357,83.62899 0.680751,-4.012844 h -0.05237 l -1.548914,0.573263 -0.08819,0.487826 1.091405,-0.396875 -0.581531,3.34863 z"
           style="font-style:italic"
           id="path13336" />
      </g>
      <g
         aria-label="*"
         id="text9519"
         style="font-size:5.64444px;line-height:1.25;font-family:'Roboto Mono';-inkscape-font-specification:'Roboto Mono';text-align:center;text-anchor:middle;fill:#f9accc;stroke-width:0.264583">
        <path
           d="m 65.330624,107.51553 -0.719335,0.90124 0.402387,0.29214 0.584287,-0.97565 0.5898,1.00046 0.402387,-0.30317 -0.705555,-0.89297 1.052821,-0.25907 -0.148828,-0.49058 -1.000455,0.41341 0.07993,-1.17685 h -0.490582 l 0.0689,1.16031 -1.005967,-0.41617 -0.148828,0.48232 z"
           id="path13339" />
      </g>
      <path
         style="fill:none;fill-opacity:1;stroke:#675ad5;stroke-width:0.529;stroke-linecap:round;stroke-linejoin:round;stroke-dasharray:none;stroke-dashoffset:0;stroke-opacity:1"
         d="m 71.738386,64.404331 78.131244,-1.5e-4 -6.08022,34.482672 H 65.658229"
         id="path10005" />
      <g
         aria-label="3"
         id="text11216"
         style="font-size:5.64444px;line-height:1.25;font-family:'Roboto Mono';-inkscape-font-specification:'Roboto Mono';text-align:center;text-anchor:middle;fill:#675ad5;stroke-width:0.264583">
        <path
           d="m 77.548644,81.377277 -0.07441,0.413412 0.38585,0.0028 q 0.165365,0.0055 0.297656,0.05236 0.132292,0.04685 0.220486,0.135048 0.08819,0.08819 0.129536,0.21773 0.04134,0.129535 0.02205,0.300412 -0.01929,0.176388 -0.09095,0.32246 -0.07166,0.143316 -0.184657,0.242535 -0.112999,0.101975 -0.264583,0.157096 -0.148828,0.05237 -0.327973,0.04685 -0.157096,-0.0028 -0.278364,-0.05512 -0.121267,-0.05236 -0.198437,-0.143316 -0.07993,-0.09095 -0.118511,-0.21773 -0.03583,-0.126779 -0.02481,-0.281119 l -0.496093,-0.0028 q -0.01378,0.253558 0.06339,0.457508 0.07717,0.203949 0.223242,0.347265 0.143316,0.146072 0.350022,0.225998 0.206705,0.07993 0.454752,0.08544 0.272851,0.0055 0.515386,-0.07441 0.242535,-0.08268 0.429948,-0.239779 0.184657,-0.157096 0.300412,-0.380338 0.118511,-0.223242 0.143316,-0.501606 0.01102,-0.148828 -0.01102,-0.283875 -0.02205,-0.137804 -0.07993,-0.256315 -0.06063,-0.118511 -0.162608,-0.209462 -0.09922,-0.09371 -0.239779,-0.15434 0.143316,-0.06339 0.272852,-0.151584 0.129535,-0.08819 0.234266,-0.201193 0.101975,-0.113 0.16812,-0.250803 0.06615,-0.14056 0.07993,-0.305924 0.02205,-0.250803 -0.0441,-0.454753 -0.06339,-0.203949 -0.198437,-0.350021 -0.137804,-0.143316 -0.338997,-0.223242 -0.198437,-0.08268 -0.446484,-0.08819 -0.250803,-0.0028 -0.482313,0.07441 -0.228754,0.07717 -0.407899,0.220486 -0.181901,0.146072 -0.300412,0.352778 -0.115755,0.206705 -0.143316,0.46302 l 0.493337,-0.0028 q 0.02756,-0.157096 0.09646,-0.283875 0.0689,-0.129536 0.176389,-0.220486 0.10473,-0.09095 0.242534,-0.14056 0.137804,-0.04961 0.300412,-0.04685 0.157096,0.0055 0.267339,0.05788 0.112999,0.04961 0.184657,0.14056 0.0689,0.09095 0.09371,0.21773 0.02481,0.124023 0.0083,0.272851 -0.02205,0.179145 -0.104731,0.314193 -0.07993,0.132291 -0.203949,0.220486 -0.124024,0.09095 -0.28112,0.137803 -0.15434,0.04685 -0.32246,0.04685 z"
           style="font-style:italic"
           id="path13342" />
      </g>
      <g
         aria-label="2"
         id="text11429"
         style="font-size:5.64444px;line-height:1.25;font-family:'Roboto Mono';-inkscape-font-specification:'Roboto Mono';text-align:center;text-anchor:middle;fill:#675ad5;stroke-width:0.264583">
        <path
           d="m 98.530344,83.62899 0.06615,-0.416167 h -1.93752 l 1.229209,-1.168576 q 0.146072,-0.137803 0.300412,-0.292143 0.157096,-0.154341 0.289388,-0.327973 0.129535,-0.173633 0.220486,-0.366558 0.09371,-0.192925 0.110243,-0.405143 0.01929,-0.242535 -0.05237,-0.440972 -0.07166,-0.201193 -0.212218,-0.344509 -0.143315,-0.143316 -0.344509,-0.220486 -0.201193,-0.07993 -0.438216,-0.08544 -0.278363,-0.0055 -0.523654,0.08544 -0.242534,0.08819 -0.429947,0.250803 -0.187413,0.165364 -0.305925,0.396874 -0.118511,0.228754 -0.146072,0.504362 l 0.496094,-0.0028 q 0.02481,-0.181901 0.09371,-0.333485 0.0689,-0.15434 0.181901,-0.264583 0.110243,-0.107487 0.261827,-0.165365 0.151584,-0.06063 0.347266,-0.05512 0.146072,0.0055 0.259071,0.06339 0.112999,0.05512 0.187413,0.148828 0.07441,0.09371 0.104731,0.220486 0.03032,0.124024 0.01378,0.264584 -0.02205,0.170876 -0.104731,0.325216 -0.07993,0.15434 -0.192925,0.2949 -0.112999,0.14056 -0.242535,0.267339 -0.129535,0.124024 -0.242534,0.237023 l -1.482768,1.441427 -0.06063,0.388606 z"
           style="font-style:italic"
           id="path13345" />
      </g>
      <g
         aria-label="5"
         id="text11435"
         style="font-size:5.64444px;line-height:1.25;font-family:'Roboto Mono';-inkscape-font-specification:'Roboto Mono';text-align:center;text-anchor:middle;fill:#675ad5;stroke-width:0.264583">
        <path
           d="m 116.16816,81.608788 0.41066,0.107487 q 0.15434,-0.118512 0.31143,-0.184657 0.1571,-0.0689 0.35829,-0.06339 0.17915,0.0055 0.30317,0.08268 0.12402,0.07717 0.19568,0.195681 0.0717,0.121268 0.0965,0.275608 0.0248,0.151584 0.008,0.311436 -0.022,0.181901 -0.0882,0.352778 -0.0634,0.170876 -0.17088,0.303168 -0.11024,0.132292 -0.26734,0.209462 -0.15709,0.07717 -0.35829,0.07166 -0.15709,-0.0055 -0.2756,-0.05788 -0.11576,-0.05512 -0.19293,-0.148828 -0.0799,-0.09371 -0.12127,-0.21773 -0.0413,-0.126779 -0.0496,-0.275607 h -0.46577 q 0.008,0.242534 0.0827,0.446484 0.0772,0.201193 0.21773,0.347265 0.1378,0.148828 0.33348,0.23151 0.19844,0.08268 0.44649,0.08819 0.30317,0.0083 0.55121,-0.09371 0.24805,-0.101975 0.42995,-0.283876 0.1819,-0.1819 0.29214,-0.432703 0.11025,-0.250803 0.13781,-0.540191 0.0248,-0.248046 -0.0193,-0.482313 -0.0441,-0.237022 -0.15986,-0.424435 -0.11851,-0.184657 -0.31419,-0.297656 -0.19292,-0.112999 -0.47129,-0.118511 -0.17639,-0.0028 -0.34175,0.04134 -0.16261,0.04134 -0.31419,0.132291 l 0.3197,-1.072113 h 1.57372 l 0.0882,-0.496093 h -2.00366 z"
           style="font-style:italic"
           id="path13348" />
      </g>
      <g
         aria-label="6"
         id="text11441"
         style="font-size:5.64444px;line-height:1.25;font-family:'Roboto Mono';-inkscape-font-specification:'Roboto Mono';text-align:center;text-anchor:middle;fill:#675ad5;stroke-width:0.264583">
        <path
           d="m 137.64646,79.610565 h -0.0551 q -0.34451,0 -0.63114,0.08544 -0.28388,0.08268 -0.51263,0.234267 -0.23151,0.151584 -0.41066,0.361046 -0.17639,0.209461 -0.30592,0.46302 -0.12954,0.256315 -0.21498,0.548459 -0.0854,0.292144 -0.12953,0.60358 l -0.0331,0.239779 q -0.0303,0.267339 0.0138,0.537434 0.0469,0.270095 0.17638,0.490581 0.12954,0.220486 0.34176,0.361046 0.21497,0.14056 0.5209,0.148828 0.30041,0.0083 0.54294,-0.101975 0.24254,-0.110243 0.41893,-0.303168 0.17638,-0.190169 0.28111,-0.443728 0.10749,-0.253559 0.1323,-0.534678 0.0221,-0.239779 -0.0221,-0.471289 -0.0441,-0.23151 -0.15985,-0.416167 -0.11576,-0.181901 -0.30593,-0.2949 -0.19017,-0.115755 -0.46026,-0.121267 -0.13505,-0.0028 -0.26183,0.03032 -0.12678,0.03032 -0.24253,0.08819 -0.10198,0.05237 -0.19844,0.126779 -0.0937,0.07166 -0.17639,0.157096 0.0551,-0.173632 0.12678,-0.333485 0.0717,-0.159852 0.15985,-0.2949 0.10749,-0.165364 0.24529,-0.297656 0.14056,-0.132291 0.30593,-0.228754 0.1626,-0.08544 0.35553,-0.132291 0.19292,-0.04685 0.41892,-0.0441 h 0.0331 z m -0.91226,1.810741 q 0.17914,0.0055 0.29214,0.09095 0.11576,0.08544 0.1819,0.214974 0.0634,0.132292 0.0799,0.292144 0.0193,0.157096 0.003,0.305924 -0.0193,0.173633 -0.0827,0.34451 -0.0634,0.170876 -0.17087,0.305924 -0.10749,0.135048 -0.25907,0.214974 -0.15159,0.07993 -0.34727,0.07441 -0.13505,-0.0055 -0.23427,-0.06063 -0.0992,-0.05512 -0.16536,-0.143316 -0.0661,-0.08819 -0.10749,-0.201193 -0.0386,-0.112999 -0.0579,-0.234267 -0.0193,-0.118511 -0.0193,-0.239778 0,-0.121267 0.011,-0.223242 l 0.0221,-0.176389 q 0.0634,-0.118511 0.15158,-0.223242 0.0882,-0.104731 0.19844,-0.181901 0.10748,-0.07717 0.23426,-0.121267 0.12954,-0.0441 0.2701,-0.03858 z"
           style="font-style:italic"
           id="path13351" />
      </g>
      <path
         style="color:#000000;fill:#f9accc;stroke-linecap:round;stroke-linejoin:round;-inkscape-stroke:none"
         d="m 68.464844,89.210937 c -5.128799,-0.260341 -11.399469,1.001202 -18.314453,5.685547 a 0.26449999,0.26449999 0 0 0 -0.07031,0.367188 0.26449999,0.26449999 0 0 0 0.367188,0.07031 c 9.105125,-6.167988 16.991486,-6.301233 22.621093,-4.912109 5.629608,1.389124 8.978516,4.302734 8.978516,4.302734 a 0.26449999,0.26449999 0 0 0 0.373047,-0.02734 0.26449999,0.26449999 0 0 0 -0.02734,-0.373047 c 0,0 -3.447574,-2.99726 -9.197266,-4.416016 -1.437422,-0.354689 -3.020869,-0.610485 -4.730468,-0.697266 z"
         id="path14286" />
      <g
         id="g14278">
        <path
           style="color:#000000;fill:#f9accc;stroke-linecap:round;-inkscape-stroke:none"
           d="m 82.144531,92.109375 a 0.26449999,0.26449999 0 0 0 -0.24414,0.28125 l 0.138671,1.974609 -1.976562,0.138672 a 0.26449999,0.26449999 0 0 0 -0.246094,0.28125 0.26449999,0.26449999 0 0 0 0.283203,0.246094 l 2.501953,-0.173828 -0.173828,-2.503906 a 0.26449999,0.26449999 0 0 0 -0.283203,-0.244141 z"
           id="path14280" />
      </g>
    </g>
    <g
       id="g15344"
       transform="translate(0,149.16775)">
      <g
         id="g11511"
         transform="translate(19.49981,15.875)">
        <path
           style="fill:none;stroke:#f9accc;stroke-width:0.529167;stroke-linejoin:round;stroke-opacity:1"
           d="m 51.371463,101.09972 -6.387803,36.23329 h 41.041567 l 6.387731,-36.23313 z"
           id="path11501" />
        <path
           style="fill:none;stroke:#f9accc;stroke-width:0.529167;stroke-linejoin:round;stroke-opacity:1"
           d="m 44.983659,137.33301 v 2.11668 h 41.041568 v -2.11668 z"
           id="path11503" />
        <path
           style="fill:none;stroke:#f9accc;stroke-width:0.529167;stroke-linejoin:round;stroke-opacity:1"
           d="m 86.025227,139.44969 6.387729,-36.23313 v -2.11668 l -6.387729,36.23313 z"
           id="path11505" />
        <path
           style="fill:none;stroke:#f9accc;stroke-width:0.529167;stroke-linejoin:round;stroke-opacity:1"
           d="M 65.504443,137.33301 71.892209,101.0998"
           id="path11507" />
        <circle
           style="fill:none;stroke:#f9accc;stroke-width:0.529167;stroke-linejoin:round;stroke-opacity:1"
           id="circle11509"
           cx="65.491211"
           cy="138.39134"
           r="1.0584227" />
      </g>
      <path
         id="path11513"
         style="fill:#ffffff;stroke:none;stroke-width:0.529167;stroke-linejoin:round;stroke-opacity:1"
         d="M 149.86963,117.32098 H 71.705409 l -6.080249,34.48265 h 78.09911 z" />
      <path
         style="fill:none;fill-opacity:1;stroke:#332255;stroke-width:0.529;stroke-linecap:round;stroke-linejoin:round;stroke-dasharray:none;stroke-dashoffset:0;stroke-opacity:1"
         d="m 91.238196,117.32101 -19.532632,-1.5e-4 -6.080228,34.48269 h 19.532703"
         id="path11515" />
      <path
         style="fill:none;stroke:#5749d1;stroke-width:0.529167;stroke-linejoin:round;stroke-dasharray:1.05833, 0.529167;stroke-dashoffset:0;stroke-opacity:1"
         d="m 91.238198,117.32101 -6.080159,34.48254"
         id="path11517" />
      <path
         style="fill:none;stroke:#5749d1;stroke-width:0.529167;stroke-linejoin:round;stroke-dasharray:1.05833, 0.529167;stroke-dashoffset:0;stroke-opacity:1"
         d="m 110.7709,117.32101 -6.08016,34.48254"
         id="path11519" />
      <path
         style="fill:none;stroke:#5749d1;stroke-width:0.529167;stroke-linejoin:round;stroke-dasharray:1.05833, 0.529167;stroke-dashoffset:0;stroke-opacity:1"
         d="m 130.3029,117.32101 -6.08016,34.48254"
         id="path11521" />
      <path
         id="path11525"
         style="fill:#ddeeff;fill-opacity:1;stroke:none;stroke-width:0.529;stroke-linejoin:round;stroke-dasharray:1.058, 0.529;stroke-dashoffset:0;stroke-opacity:1"
         d="m 66.886529,150.74415 c 5.794271,0 11.588541,0 17.382812,0 1.902344,-10.78841 3.804688,-21.57682 5.707031,-32.36523 -5.79427,0 -11.588541,0 -17.382812,0 -1.902344,10.78841 -3.804687,21.57682 -5.707031,32.36523 z" />
      <g
         aria-label="3"
         id="text11529"
         style="font-size:5.64444px;line-height:1.25;font-family:'Roboto Mono';-inkscape-font-specification:'Roboto Mono';text-align:center;text-anchor:middle;fill:#332255;stroke-width:0.264583"
         transform="translate(19.49981)">
        <path
           d="m 58.015948,134.29394 -0.07441,0.41341 0.38585,0.003 q 0.165365,0.006 0.297656,0.0524 0.132292,0.0469 0.220486,0.13505 0.08819,0.0882 0.129536,0.21773 0.04134,0.12954 0.02205,0.30041 -0.01929,0.17639 -0.09095,0.32246 -0.07166,0.14332 -0.184657,0.24254 -0.112999,0.10197 -0.264583,0.1571 -0.148828,0.0524 -0.327973,0.0469 -0.157096,-0.003 -0.278364,-0.0551 -0.121267,-0.0524 -0.198437,-0.14332 -0.07993,-0.0909 -0.118511,-0.21773 -0.03583,-0.12678 -0.0248,-0.28112 l -0.496093,-0.003 q -0.01378,0.25355 0.06339,0.4575 0.07717,0.20395 0.223242,0.34727 0.143315,0.14607 0.350021,0.226 0.206706,0.0799 0.454752,0.0854 0.272852,0.006 0.515386,-0.0744 0.242535,-0.0827 0.429948,-0.23978 0.184657,-0.15709 0.300412,-0.38033 0.118511,-0.22325 0.143316,-0.50161 0.01102,-0.14883 -0.01102,-0.28388 -0.02205,-0.1378 -0.07993,-0.25631 -0.06063,-0.11851 -0.162608,-0.20946 -0.09922,-0.0937 -0.239779,-0.15434 0.143316,-0.0634 0.272852,-0.15159 0.129535,-0.0882 0.234266,-0.20119 0.101975,-0.113 0.168121,-0.2508 0.06614,-0.14056 0.07993,-0.30593 0.02205,-0.2508 -0.0441,-0.45475 -0.06339,-0.20395 -0.198438,-0.35002 -0.137803,-0.14332 -0.338997,-0.22324 -0.198437,-0.0827 -0.446484,-0.0882 -0.250803,-0.003 -0.482313,0.0744 -0.228754,0.0772 -0.407899,0.22048 -0.181901,0.14607 -0.300412,0.35278 -0.115755,0.20671 -0.143316,0.46302 l 0.493337,-0.003 q 0.02756,-0.15709 0.09646,-0.28387 0.0689,-0.12954 0.176389,-0.22049 0.104731,-0.0909 0.242534,-0.14056 0.137804,-0.0496 0.300412,-0.0469 0.157097,0.006 0.26734,0.0579 0.112999,0.0496 0.184657,0.14056 0.0689,0.0909 0.09371,0.21773 0.02481,0.12402 0.0083,0.27285 -0.02205,0.17914 -0.10473,0.31419 -0.07993,0.13229 -0.20395,0.22049 -0.124023,0.0909 -0.28112,0.1378 -0.15434,0.0469 -0.32246,0.0469 z"
           style="font-style:italic"
           id="path13355" />
      </g>
      <g
         aria-label="*"
         id="text11533"
         style="font-size:5.64444px;line-height:1.25;font-family:'Roboto Mono';-inkscape-font-specification:'Roboto Mono';text-align:center;text-anchor:middle;fill:#f9accc;stroke-width:0.264583"
         transform="translate(19.49981)">
        <path
           d="m 65.330624,160.43222 -0.719335,0.90123 0.402387,0.29215 0.584287,-0.97565 0.5898,1.00045 0.402387,-0.30317 -0.705555,-0.89296 1.052821,-0.25908 -0.148828,-0.49058 -1.000455,0.41341 0.07993,-1.17684 h -0.490582 l 0.0689,1.16031 -1.005967,-0.41617 -0.148828,0.48231 z"
           id="path13358" />
      </g>
      <path
         id="path11535"
         style="fill:none;fill-opacity:1;stroke:#675ad5;stroke-width:0.529;stroke-linecap:round;stroke-linejoin:round;stroke-dasharray:none;stroke-dashoffset:0;stroke-opacity:1"
         d="m 85.157818,151.80363 h 58.566452 l 6.14536,-34.48265 H 91.238067"
         sodipodi:nodetypes="cccc" />
      <g
         aria-label="2"
         id="text11539"
         style="font-size:5.64444px;line-height:1.25;font-family:'Roboto Mono';-inkscape-font-specification:'Roboto Mono';text-align:center;text-anchor:middle;fill:#675ad5;stroke-width:0.264583"
         transform="translate(19.49981)">
        <path
           d="m 78.998339,136.54565 0.06615,-0.41616 h -1.937521 l 1.229209,-1.16858 q 0.146072,-0.1378 0.300413,-0.29214 0.157096,-0.15434 0.289387,-0.32798 0.129536,-0.17363 0.220486,-0.36655 0.09371,-0.19293 0.110243,-0.40515 0.01929,-0.24253 -0.05236,-0.44097 -0.07166,-0.20119 -0.212218,-0.34451 -0.143316,-0.14331 -0.344509,-0.22048 -0.201194,-0.0799 -0.438216,-0.0854 -0.278363,-0.006 -0.523654,0.0854 -0.242535,0.0882 -0.429948,0.2508 -0.187413,0.16536 -0.305924,0.39687 -0.118511,0.22876 -0.146072,0.50437 l 0.496094,-0.003 q 0.0248,-0.1819 0.09371,-0.33349 0.0689,-0.15434 0.181901,-0.26458 0.110243,-0.10749 0.261827,-0.16536 0.151584,-0.0606 0.347265,-0.0551 0.146072,0.006 0.259071,0.0634 0.112999,0.0551 0.187413,0.14882 0.07441,0.0937 0.104731,0.22049 0.03032,0.12402 0.01378,0.26458 -0.02205,0.17088 -0.104731,0.32522 -0.07993,0.15434 -0.192925,0.2949 -0.112999,0.14056 -0.242535,0.26734 -0.129535,0.12402 -0.242534,0.23702 l -1.482768,1.44143 -0.06063,0.3886 z"
           style="font-style:italic"
           id="path13361" />
      </g>
      <g
         aria-label="5"
         id="text11543"
         style="font-size:5.64444px;line-height:1.25;font-family:'Roboto Mono';-inkscape-font-specification:'Roboto Mono';text-align:center;text-anchor:middle;fill:#675ad5;stroke-width:0.264583"
         transform="translate(19.49981)">
        <path
           d="m 96.634165,134.52545 0.410655,0.10749 q 0.15434,-0.11851 0.311436,-0.18466 0.157097,-0.0689 0.35829,-0.0634 0.179145,0.006 0.303168,0.0827 0.124024,0.0772 0.195682,0.19569 0.07166,0.12126 0.09646,0.2756 0.02481,0.15159 0.0083,0.31144 -0.02205,0.1819 -0.08819,0.35278 -0.06339,0.17087 -0.170877,0.30317 -0.110243,0.13229 -0.267339,0.20946 -0.157096,0.0772 -0.358289,0.0717 -0.157097,-0.006 -0.275608,-0.0579 -0.115755,-0.0551 -0.192925,-0.14883 -0.07993,-0.0937 -0.121267,-0.21773 -0.04134,-0.12678 -0.04961,-0.27561 h -0.465776 q 0.0083,0.24254 0.08268,0.44649 0.07717,0.20119 0.21773,0.34726 0.137804,0.14883 0.333485,0.23151 0.198437,0.0827 0.446484,0.0882 0.303168,0.008 0.551215,-0.0937 0.248046,-0.10198 0.429947,-0.28388 0.181901,-0.1819 0.292144,-0.4327 0.110243,-0.2508 0.137804,-0.54019 0.02481,-0.24805 -0.01929,-0.48231 -0.0441,-0.23703 -0.159852,-0.42444 -0.118511,-0.18466 -0.314192,-0.29766 -0.192926,-0.11299 -0.471289,-0.11851 -0.176389,-0.003 -0.341753,0.0413 -0.162609,0.0414 -0.314193,0.1323 L 97.5189,133.0289 h 1.573718 l 0.08819,-0.49609 h -2.003666 z"
           style="font-style:italic"
           id="path13364" />
      </g>
      <g
         aria-label="6"
         id="text11547"
         style="font-size:5.64444px;line-height:1.25;font-family:'Roboto Mono';-inkscape-font-specification:'Roboto Mono';text-align:center;text-anchor:middle;fill:#675ad5;stroke-width:0.264583"
         transform="translate(19.49981)">
        <path
           d="m 118.11395,132.5273 h -0.0551 q -0.34451,0 -0.63114,0.0854 -0.28388,0.0827 -0.51263,0.23426 -0.23151,0.15159 -0.41066,0.36105 -0.17639,0.20946 -0.30592,0.46302 -0.12954,0.25631 -0.21498,0.54846 -0.0854,0.29214 -0.12953,0.60358 l -0.0331,0.23978 q -0.0303,0.26734 0.0138,0.53743 0.0468,0.2701 0.17639,0.49058 0.12953,0.22049 0.34175,0.36105 0.21497,0.14056 0.5209,0.14883 0.30041,0.008 0.54294,-0.10198 0.24254,-0.11024 0.41893,-0.30317 0.17639,-0.19017 0.28112,-0.44373 0.10748,-0.25355 0.13229,-0.53467 0.0221,-0.23978 -0.022,-0.47129 -0.0441,-0.23151 -0.15985,-0.41617 -0.11576,-0.1819 -0.30593,-0.2949 -0.19017,-0.11575 -0.46026,-0.12127 -0.13505,-0.003 -0.26183,0.0303 -0.12678,0.0303 -0.24253,0.0882 -0.10198,0.0524 -0.19844,0.12678 -0.0937,0.0717 -0.17639,0.1571 0.0551,-0.17363 0.12678,-0.33348 0.0717,-0.15986 0.15985,-0.2949 0.10749,-0.16537 0.24529,-0.29766 0.14056,-0.13229 0.30593,-0.22875 0.16261,-0.0854 0.35553,-0.1323 0.19293,-0.0469 0.41892,-0.0441 h 0.0331 z m -0.91226,1.81074 q 0.17914,0.006 0.29214,0.0909 0.11576,0.0854 0.1819,0.21497 0.0634,0.13229 0.0799,0.29215 0.0193,0.15709 0.003,0.30592 -0.0193,0.17363 -0.0827,0.34451 -0.0634,0.17088 -0.17087,0.30592 -0.10749,0.13505 -0.25907,0.21498 -0.15159,0.0799 -0.34727,0.0744 -0.13505,-0.006 -0.23427,-0.0606 -0.0992,-0.0551 -0.16536,-0.14332 -0.0662,-0.0882 -0.10749,-0.20119 -0.0386,-0.113 -0.0579,-0.23427 -0.0193,-0.11851 -0.0193,-0.23978 0,-0.12126 0.011,-0.22324 l 0.022,-0.17639 q 0.0634,-0.11851 0.15158,-0.22324 0.0882,-0.10473 0.19844,-0.1819 0.10748,-0.0772 0.23426,-0.12127 0.12954,-0.0441 0.2701,-0.0386 z"
           style="font-style:italic"
           id="path13367" />
      </g>
      <path
         style="color:#000000;fill:#f9accc;stroke-linecap:round;stroke-linejoin:round;-inkscape-stroke:none"
         d="m 87.964844,142.12695 c -5.1288,-0.26034 -11.399469,1.0012 -18.314453,5.68555 a 0.26449999,0.26449999 0 0 0 -0.07031,0.36719 0.26449999,0.26449999 0 0 0 0.367188,0.0723 c 9.105125,-6.16799 16.991485,-6.30318 22.621093,-4.91406 5.629609,1.38912 8.978508,4.30274 8.978518,4.30273 a 0.26449999,0.26449999 0 0 0 0.37304,-0.0254 0.26449999,0.26449999 0 0 0 -0.0273,-0.37304 c 0,0 -3.447572,-2.99922 -9.197265,-4.41797 -1.437423,-0.35469 -3.020868,-0.61049 -4.730468,-0.69727 z"
         id="path14302" />
      <g
         id="g14294">
        <path
           style="color:#000000;fill:#f9accc;stroke-linecap:round;-inkscape-stroke:none"
           d="m 101.64453,145.02539 a 0.26449999,0.26449999 0 0 0 -0.24609,0.28125 l 0.13867,1.97461 -1.97461,0.13867 a 0.26449999,0.26449999 0 0 0 -0.246094,0.2832 0.26449999,0.26449999 0 0 0 0.283203,0.24415 l 2.501951,-0.17383 -0.17383,-2.50196 a 0.26449999,0.26449999 0 0 0 -0.2832,-0.24609 z"
           id="path14296" />
      </g>
    </g>
    <g
       id="g15246"
       transform="translate(2.6034083e-5,-11.698934)">
      <g
         id="g11579"
         transform="translate(134.29747,68.791668)">
        <path
           style="fill:none;stroke:#f9accc;stroke-width:0.529167;stroke-linejoin:round;stroke-opacity:1"
           d="m 51.371463,101.09972 -6.387803,36.23329 h 41.041567 l 6.387731,-36.23313 z"
           id="path11569" />
        <path
           style="fill:none;stroke:#f9accc;stroke-width:0.529167;stroke-linejoin:round;stroke-opacity:1"
           d="m 44.983659,137.33301 v 2.11668 h 41.041568 v -2.11668 z"
           id="path11571" />
        <path
           style="fill:none;stroke:#f9accc;stroke-width:0.529167;stroke-linejoin:round;stroke-opacity:1"
           d="m 86.025227,139.44969 6.387729,-36.23313 v -2.11668 l -6.387729,36.23313 z"
           id="path11573" />
        <path
           style="fill:none;stroke:#f9accc;stroke-width:0.529167;stroke-linejoin:round;stroke-opacity:1"
           d="M 65.504443,137.33301 71.892209,101.0998"
           id="path11575" />
        <circle
           style="fill:none;stroke:#f9accc;stroke-width:0.529167;stroke-linejoin:round;stroke-opacity:1"
           id="circle11577"
           cx="65.491211"
           cy="138.39134"
           r="1.0584227" />
      </g>
      <path
         id="path11581"
         style="fill:#ffffff;stroke:none;stroke-width:0.529167;stroke-linejoin:round;stroke-opacity:1"
         d="m 245.11965,170.23765 h -58.61658 l -6.08025,34.48265 h 58.57885 z" />
      <path
         style="fill:none;fill-opacity:1;stroke:#332255;stroke-width:0.529;stroke-linecap:round;stroke-linejoin:round;stroke-dasharray:none;stroke-dashoffset:0;stroke-opacity:1"
         d="m 206.03586,170.23771 -19.53264,-1.5e-4 -6.08022,34.48269 h 19.5327"
         id="path11583" />
      <path
         style="fill:none;stroke:#5749d1;stroke-width:0.529167;stroke-linejoin:round;stroke-dasharray:1.05833, 0.529167;stroke-dashoffset:0;stroke-opacity:1"
         d="m 206.03586,170.23771 -6.08016,34.48254"
         id="path11585" />
      <path
         style="fill:none;stroke:#5749d1;stroke-width:0.529167;stroke-linejoin:round;stroke-dasharray:1.05833, 0.529167;stroke-dashoffset:0;stroke-opacity:1"
         d="m 225.56856,170.23771 -6.08016,34.48254"
         id="path11587" />
      <path
         id="path11591"
         style="fill:#ddeeff;fill-opacity:1;stroke:none;stroke-width:0.529;stroke-linejoin:round;stroke-dasharray:1.058, 0.529;stroke-dashoffset:0;stroke-opacity:1"
         d="m 181.68419,203.66085 c 5.79427,0 11.58854,0 17.38281,0 1.90234,-10.78841 3.80469,-21.57682 5.70703,-32.36523 -5.79427,0 -11.58854,0 -17.38281,0 -1.90234,10.78841 -3.80469,21.57682 -5.70703,32.36523 z" />
      <g
         aria-label="6"
         id="text11595"
         style="font-size:5.64444px;line-height:1.25;font-family:'Roboto Mono';-inkscape-font-specification:'Roboto Mono';text-align:center;text-anchor:middle;fill:#332255;stroke-width:0.264583"
         transform="translate(134.29747)">
        <path
           d="m 59.515252,185.44402 h -0.05512 q -0.344509,0 -0.631141,0.0854 -0.283876,0.0827 -0.51263,0.23427 -0.23151,0.15158 -0.410655,0.36105 -0.176389,0.20946 -0.305924,0.46302 -0.129536,0.25631 -0.214974,0.54846 -0.08544,0.29214 -0.129536,0.60358 l -0.03307,0.23977 q -0.03032,0.26734 0.01378,0.53744 0.04685,0.27009 0.176389,0.49058 0.129535,0.22049 0.341753,0.36105 0.214974,0.14056 0.520898,0.14882 0.300412,0.008 0.542947,-0.10197 0.242534,-0.11024 0.418923,-0.30317 0.176389,-0.19017 0.281119,-0.44373 0.107487,-0.25356 0.132292,-0.53468 0.02205,-0.23977 -0.02205,-0.47128 -0.0441,-0.23151 -0.159852,-0.41617 -0.115755,-0.1819 -0.305924,-0.2949 -0.190169,-0.11576 -0.460265,-0.12127 -0.135047,-0.003 -0.261827,0.0303 -0.126779,0.0303 -0.242534,0.0882 -0.101975,0.0524 -0.198438,0.12678 -0.09371,0.0717 -0.176388,0.1571 0.05512,-0.17363 0.126779,-0.33349 0.07166,-0.15985 0.159852,-0.2949 0.107487,-0.16536 0.245291,-0.29765 0.14056,-0.13229 0.305924,-0.22876 0.162609,-0.0854 0.355534,-0.13229 0.192925,-0.0468 0.418923,-0.0441 h 0.03307 z m -0.91226,1.81074 q 0.179145,0.006 0.292144,0.0909 0.115755,0.0854 0.181901,0.21497 0.06339,0.13229 0.07993,0.29214 0.01929,0.1571 0.0028,0.30593 -0.01929,0.17363 -0.08268,0.34451 -0.06339,0.17087 -0.170877,0.30592 -0.107487,0.13505 -0.259071,0.21498 -0.151584,0.0799 -0.347265,0.0744 -0.135048,-0.006 -0.234267,-0.0606 -0.09922,-0.0551 -0.165364,-0.14332 -0.06615,-0.0882 -0.107487,-0.20119 -0.03859,-0.113 -0.05788,-0.23427 -0.01929,-0.11851 -0.01929,-0.23978 0,-0.12126 0.01102,-0.22324 l 0.02205,-0.17639 q 0.06339,-0.11851 0.151584,-0.22324 0.08819,-0.10473 0.198437,-0.1819 0.107487,-0.0772 0.234266,-0.12127 0.129536,-0.0441 0.270096,-0.0386 z"
           style="font-style:italic"
           id="path13370" />
      </g>
      <g
         aria-label="*"
         id="text11599"
         style="font-size:5.64444px;line-height:1.25;font-family:'Roboto Mono';-inkscape-font-specification:'Roboto Mono';text-align:center;text-anchor:middle;fill:#f9accc;stroke-width:0.264583"
         transform="translate(134.29747)">
        <path
           d="m 65.330624,213.34893 -0.719335,0.90124 0.402387,0.29214 0.584287,-0.97565 0.5898,1.00046 0.402387,-0.30317 -0.705555,-0.89297 1.052821,-0.25907 -0.148828,-0.49058 -1.000455,0.41341 0.07993,-1.17684 h -0.490582 l 0.0689,1.16031 -1.005967,-0.41617 -0.148828,0.48231 z"
           id="path13373" />
      </g>
      <path
         id="path11601"
         style="fill:none;fill-opacity:1;stroke:#675ad5;stroke-width:0.529;stroke-linecap:round;stroke-linejoin:round;stroke-dasharray:none;stroke-dashoffset:0;stroke-opacity:1"
         d="m 199.95548,204.7203 h 39.04619 l 6.11798,-34.48265 h -39.08392"
         sodipodi:nodetypes="cccc" />
      <g
         aria-label="5"
         id="text11605"
         style="font-size:5.64444px;line-height:1.25;font-family:'Roboto Mono';-inkscape-font-specification:'Roboto Mono';text-align:center;text-anchor:middle;fill:#675ad5;stroke-width:0.264583"
         transform="translate(134.29747)">
        <path
           d="m 77.10216,187.44217 0.410655,0.10749 q 0.15434,-0.11851 0.311436,-0.18466 0.157096,-0.0689 0.35829,-0.0634 0.179145,0.006 0.303168,0.0827 0.124023,0.0772 0.195681,0.19568 0.07166,0.12127 0.09646,0.27561 0.02481,0.15158 0.0083,0.31144 -0.02205,0.1819 -0.08819,0.35277 -0.06339,0.17088 -0.170877,0.30317 -0.110243,0.13229 -0.267339,0.20946 -0.157096,0.0772 -0.35829,0.0717 -0.157096,-0.006 -0.275607,-0.0579 -0.115755,-0.0551 -0.192925,-0.14882 -0.07993,-0.0937 -0.121268,-0.21773 -0.04134,-0.12678 -0.04961,-0.27561 h -0.465777 q 0.0083,0.24253 0.08268,0.44648 0.07717,0.2012 0.21773,0.34727 0.137803,0.14883 0.333485,0.23151 0.198437,0.0827 0.446484,0.0882 0.303168,0.008 0.551214,-0.0937 0.248047,-0.10198 0.429948,-0.28388 0.181901,-0.1819 0.292144,-0.4327 0.110243,-0.25081 0.137804,-0.54019 0.0248,-0.24805 -0.01929,-0.48232 -0.0441,-0.23702 -0.159852,-0.42443 -0.118511,-0.18466 -0.314193,-0.29766 -0.192925,-0.113 -0.471288,-0.11851 -0.176389,-0.003 -0.341754,0.0413 -0.162608,0.0413 -0.314192,0.13229 l 0.319705,-1.07211 h 1.573718 l 0.08819,-0.49609 h -2.003666 z"
           style="font-style:italic"
           id="path13376" />
      </g>
      <g
         aria-label="6"
         id="text11609"
         style="font-size:5.64444px;line-height:1.25;font-family:'Roboto Mono';-inkscape-font-specification:'Roboto Mono';text-align:center;text-anchor:middle;fill:#675ad5;stroke-width:0.264583"
         transform="translate(134.29747)">
        <path
           d="m 98.579953,185.44402 h -0.05512 q -0.344509,0 -0.631141,0.0854 -0.283876,0.0827 -0.51263,0.23427 -0.23151,0.15158 -0.410655,0.36105 -0.176389,0.20946 -0.305924,0.46302 -0.129536,0.25631 -0.214974,0.54846 -0.08544,0.29214 -0.129535,0.60358 l -0.03307,0.23977 q -0.03032,0.26734 0.01378,0.53744 0.04685,0.27009 0.176389,0.49058 0.129535,0.22049 0.341753,0.36105 0.214974,0.14056 0.520898,0.14882 0.300412,0.008 0.542947,-0.10197 0.242534,-0.11024 0.418923,-0.30317 0.176389,-0.19017 0.28112,-0.44373 0.107486,-0.25356 0.132291,-0.53468 0.02205,-0.23977 -0.02205,-0.47128 -0.0441,-0.23151 -0.159852,-0.41617 -0.115755,-0.1819 -0.305924,-0.2949 -0.190169,-0.11576 -0.460264,-0.12127 -0.135048,-0.003 -0.261828,0.0303 -0.126779,0.0303 -0.242534,0.0882 -0.101975,0.0524 -0.198437,0.12678 -0.09371,0.0717 -0.176389,0.1571 0.05512,-0.17363 0.126779,-0.33349 0.07166,-0.15985 0.159853,-0.2949 0.107486,-0.16536 0.24529,-0.29765 0.14056,-0.13229 0.305924,-0.22876 0.162609,-0.0854 0.355534,-0.13229 0.192925,-0.0468 0.418923,-0.0441 h 0.03307 z m -0.91226,1.81074 q 0.179145,0.006 0.292144,0.0909 0.115755,0.0854 0.181901,0.21497 0.06339,0.13229 0.07993,0.29214 0.01929,0.1571 0.0028,0.30593 -0.01929,0.17363 -0.08268,0.34451 -0.06339,0.17087 -0.170877,0.30592 -0.107487,0.13505 -0.259071,0.21498 -0.151584,0.0799 -0.347265,0.0744 -0.135048,-0.006 -0.234267,-0.0606 -0.09922,-0.0551 -0.165364,-0.14332 -0.06615,-0.0882 -0.107487,-0.20119 -0.03858,-0.113 -0.05788,-0.23427 -0.01929,-0.11851 -0.01929,-0.23978 0,-0.12126 0.01102,-0.22324 l 0.02205,-0.17639 q 0.06339,-0.11851 0.151584,-0.22324 0.08819,-0.10473 0.198437,-0.1819 0.107487,-0.0772 0.234267,-0.12127 0.129535,-0.0441 0.270095,-0.0386 z"
           style="font-style:italic"
           id="path13379" />
      </g>
      <path
         style="color:#000000;fill:#f9accc;stroke-linecap:round;stroke-linejoin:round;-inkscape-stroke:none"
         d="m 202.76173,195.04492 c -5.12881,-0.26034 -11.39948,1.0012 -18.31446,5.68555 a 0.26449999,0.26449999 0 0 0 -0.0703,0.36719 0.26449999,0.26449999 0 0 0 0.36719,0.0703 c 9.10512,-6.16799 16.99147,-6.30123 22.62108,-4.91211 5.62961,1.38912 8.97852,4.30078 8.97852,4.30078 a 0.26449999,0.26449999 0 0 0 0.37306,-0.0254 0.26449999,0.26449999 0 0 0 -0.0254,-0.37305 c 0,0 -3.44953,-2.99726 -9.19922,-4.41601 -1.43743,-0.35469 -3.02087,-0.61049 -4.73047,-0.69727 z"
         id="path14318" />
      <g
         id="g14310"
         transform="translate(95.250005)">
        <path
           style="color:#000000;fill:#f9accc;stroke-linecap:round;-inkscape-stroke:none"
           d="m 121.19141,197.94141 a 0.26449999,0.26449999 0 0 0 -0.24414,0.2832 l 0.13867,1.97461 -1.97656,0.13867 a 0.26449999,0.26449999 0 0 0 -0.2461,0.28125 0.26449999,0.26449999 0 0 0 0.2832,0.24609 l 2.50196,-0.17578 -0.17383,-2.50195 a 0.26449999,0.26449999 0 0 0 -0.2832,-0.24609 z"
           id="path14312" />
      </g>
    </g>
    <g
       id="g15693"
       transform="translate(0,-52.916682)">
      <g
         id="g11759"
         transform="translate(173.38129,43.334414)">
        <path
           style="fill:none;fill-opacity:1;stroke:#332255;stroke-width:0.529;stroke-linecap:round;stroke-linejoin:round;stroke-dasharray:none;stroke-dashoffset:0;stroke-opacity:1"
           d="m 71.738386,276.07111 -19.532632,-1.5e-4 -6.080228,34.48269 h 19.532703 z"
           id="path11673"
           sodipodi:nodetypes="ccccc" />
        <path
           id="path11677"
           style="fill:#ddeeff;fill-opacity:1;stroke:none;stroke-width:0.529;stroke-linejoin:round;stroke-dasharray:1.058, 0.529;stroke-dashoffset:0;stroke-opacity:1"
           d="m 47.386719,309.49425 c 5.794271,0 11.588541,0 17.382812,0 1.902344,-10.78841 3.804688,-21.57682 5.707031,-32.36523 -5.79427,0 -11.588541,0 -17.382812,0 -1.902344,10.78841 -3.804687,21.57682 -5.707031,32.36523 z" />
        <g
           aria-label="180"
           id="text11681"
           style="font-size:5.64444px;line-height:1.25;font-family:'Roboto Mono';-inkscape-font-specification:'Roboto Mono';text-align:center;text-anchor:middle;fill:#332255;stroke-width:0.264583">
          <path
             d="m 55.342556,295.29568 0.68075,-4.01284 h -0.05236 l -1.548914,0.57326 -0.08819,0.48783 1.091405,-0.39688 -0.581532,3.34863 z"
             style="font-style:italic"
             id="path13393" />
          <path
             d="m 59.95898,292.30534 q 0.01929,-0.23977 -0.04961,-0.43546 -0.06615,-0.19568 -0.201193,-0.33624 -0.137804,-0.14056 -0.333485,-0.22048 -0.192926,-0.0799 -0.427192,-0.0854 -0.256315,-0.006 -0.482313,0.0717 -0.223242,0.0772 -0.394119,0.226 -0.173632,0.14882 -0.281119,0.36104 -0.104731,0.20946 -0.124023,0.46853 -0.01103,0.14883 0.01654,0.28939 0.03032,0.13781 0.09922,0.25907 0.04961,0.0909 0.121267,0.17088 0.07441,0.0772 0.165364,0.14056 -0.165364,0.0717 -0.30868,0.17088 -0.143316,0.0965 -0.253559,0.22324 -0.110243,0.12678 -0.179145,0.28387 -0.06614,0.15434 -0.08268,0.34176 -0.02205,0.25631 0.05237,0.46026 0.07717,0.20395 0.225998,0.34727 0.148828,0.14607 0.355533,0.22599 0.209462,0.0772 0.454753,0.0827 0.264583,0.006 0.504361,-0.0717 0.242535,-0.0799 0.429948,-0.23151 0.187413,-0.14883 0.305924,-0.36656 0.121267,-0.22049 0.143316,-0.49334 0.01102,-0.14607 -0.01654,-0.28387 -0.0248,-0.13781 -0.08544,-0.25907 -0.06339,-0.12127 -0.162608,-0.22325 -0.09646,-0.10197 -0.223242,-0.17638 0.143316,-0.0689 0.270095,-0.16261 0.126779,-0.0937 0.225998,-0.20946 0.09646,-0.11576 0.157096,-0.25632 0.06339,-0.14332 0.07717,-0.31144 z m -0.735871,1.87138 q -0.01654,0.17088 -0.09095,0.31419 -0.07441,0.14056 -0.190169,0.23978 -0.115755,0.10197 -0.267339,0.1571 -0.148828,0.0551 -0.319705,0.0496 -0.157096,-0.003 -0.278363,-0.0551 -0.121268,-0.0551 -0.198438,-0.14882 -0.07993,-0.0937 -0.112999,-0.22325 -0.03307,-0.12953 -0.01654,-0.28387 0.01929,-0.16812 0.09095,-0.31419 0.07166,-0.14608 0.187413,-0.25356 0.112999,-0.10749 0.264583,-0.16537 0.151585,-0.0579 0.325217,-0.0551 0.157096,0.006 0.275608,0.0661 0.121267,0.0579 0.201193,0.15709 0.07717,0.0992 0.110243,0.23427 0.03583,0.13229 0.01929,0.28112 z m 0.23151,-1.86311 q -0.01654,0.14883 -0.07993,0.28112 -0.06063,0.12954 -0.159853,0.226 -0.101974,0.0992 -0.237022,0.15434 -0.132292,0.0524 -0.286632,0.0496 -0.14056,-0.003 -0.248046,-0.0551 -0.104731,-0.0551 -0.170877,-0.14607 -0.0689,-0.0882 -0.09646,-0.20671 -0.02756,-0.12127 -0.01378,-0.25356 0.01654,-0.14883 0.07717,-0.28112 0.06063,-0.13505 0.159852,-0.23426 0.09922,-0.0965 0.231511,-0.15159 0.132291,-0.0551 0.289387,-0.0524 0.14056,0.003 0.245291,0.0579 0.107487,0.0551 0.176389,0.14608 0.0689,0.0937 0.09646,0.21497 0.03032,0.11851 0.01654,0.2508 z"
             style="font-style:italic"
             id="path13395" />
          <path
             d="m 63.078857,293.75504 0.148828,-0.93431 q 0.01378,-0.10197 0.01654,-0.21222 0.0055,-0.11024 0.0028,-0.19843 -0.0055,-0.19569 -0.05788,-0.39412 -0.05237,-0.19844 -0.151585,-0.35554 -0.118511,-0.19292 -0.325216,-0.30868 -0.206706,-0.11851 -0.507118,-0.12678 -0.234266,-0.006 -0.427192,0.0551 -0.192925,0.0579 -0.347265,0.16537 -0.157096,0.11024 -0.278363,0.26183 -0.121268,0.15158 -0.209462,0.33072 -0.09095,0.17915 -0.148828,0.38034 -0.05788,0.19844 -0.08819,0.40239 l -0.148828,0.93982 q -0.02481,0.19017 -0.01929,0.38034 0.0055,0.19017 0.04685,0.3638 0.03858,0.17639 0.115755,0.32797 0.07717,0.15159 0.201194,0.26459 0.121267,0.113 0.289388,0.1819 0.170876,0.0661 0.391362,0.0717 0.184657,0.006 0.341753,-0.0303 0.159853,-0.0358 0.2949,-0.10473 0.206706,-0.10749 0.361046,-0.28663 0.157096,-0.17915 0.264583,-0.39412 0.0882,-0.17639 0.146072,-0.37483 0.05788,-0.20119 0.08819,-0.40514 z m -0.898481,-2.11115 q 0.176389,0.006 0.292144,0.0716 0.118511,0.0662 0.190169,0.17639 0.0689,0.11025 0.09646,0.25356 0.02756,0.14332 0.02481,0.30041 l -1.714279,1.19063 q 0.01102,-0.0441 0.01378,-0.0799 0.0055,-0.0358 0.01929,-0.11575 l 0.121268,-0.73312 q 0.01929,-0.12953 0.05237,-0.25631 0.03307,-0.12678 0.08268,-0.24254 0.05512,-0.12402 0.129536,-0.22875 0.07717,-0.10473 0.173632,-0.1819 0.09922,-0.0772 0.228755,-0.11851 0.129535,-0.0413 0.289387,-0.0358 z m -0.573263,3.29351 q -0.173633,-0.006 -0.292144,-0.0717 -0.115755,-0.0661 -0.184657,-0.17364 -0.07166,-0.10748 -0.101975,-0.24804 -0.02756,-0.14056 -0.0248,-0.2949 l 1.70601,-1.1796 q -0.01654,0.10473 -0.02756,0.16536 -0.01102,0.0579 -0.02481,0.14607 l -0.09646,0.58705 q -0.01929,0.12402 -0.05237,0.24805 -0.03032,0.12402 -0.07717,0.23702 -0.05788,0.14331 -0.151584,0.26734 -0.09095,0.12402 -0.21773,0.20395 -0.09095,0.0579 -0.206705,0.0882 -0.113,0.0303 -0.248047,0.0248 z"
             style="font-style:italic"
             id="path13397" />
        </g>
      </g>
      <g
         id="g15290"
         transform="translate(0,43.334414)">
        <g
           id="g11633"
           transform="translate(152.70662,121.70835)">
          <path
             style="fill:none;stroke:#f9accc;stroke-width:0.529167;stroke-linejoin:round;stroke-opacity:1"
             d="m 51.371463,101.09972 -6.387803,36.23329 h 41.041567 l 6.387731,-36.23313 z"
             id="path11623" />
          <path
             style="fill:none;stroke:#f9accc;stroke-width:0.529167;stroke-linejoin:round;stroke-opacity:1"
             d="m 44.983659,137.33301 v 2.11668 h 41.041568 v -2.11668 z"
             id="path11625" />
          <path
             style="fill:none;stroke:#f9accc;stroke-width:0.529167;stroke-linejoin:round;stroke-opacity:1"
             d="m 86.025227,139.44969 6.387729,-36.23313 v -2.11668 l -6.387729,36.23313 z"
             id="path11627" />
          <path
             style="fill:none;stroke:#f9accc;stroke-width:0.529167;stroke-linejoin:round;stroke-opacity:1"
             d="M 65.504443,137.33301 71.892209,101.0998"
             id="path11629" />
          <circle
             style="fill:none;stroke:#f9accc;stroke-width:0.529167;stroke-linejoin:round;stroke-opacity:1"
             id="circle11631"
             cx="65.491211"
             cy="138.39134"
             r="1.0584227" />
        </g>
        <path
           id="path11635"
           style="fill:#ffffff;stroke:none;stroke-width:0.529167;stroke-linejoin:round;stroke-opacity:1"
           d="m 244.00079,223.15434 h -39.08857 l -6.08025,34.48265 h 39.04258 z" />
        <path
           style="fill:none;fill-opacity:1;stroke:#332255;stroke-width:0.529;stroke-linecap:round;stroke-linejoin:round;stroke-dasharray:none;stroke-dashoffset:0;stroke-opacity:1"
           d="m 224.44501,223.15441 -19.53264,-1.5e-4 -6.08022,34.48269 h 19.5327"
           id="path11637" />
        <path
           style="fill:none;stroke:#5749d1;stroke-width:0.529167;stroke-linejoin:round;stroke-dasharray:1.05833, 0.529167;stroke-dashoffset:0;stroke-opacity:1"
           d="m 224.44501,223.15441 -6.08016,34.48254"
           id="path11639" />
        <path
           id="path11643"
           style="fill:#ddeeff;fill-opacity:1;stroke:none;stroke-width:0.529;stroke-linejoin:round;stroke-dasharray:1.058, 0.529;stroke-dashoffset:0;stroke-opacity:1"
           d="m 200.09334,256.57755 c 5.79427,0 11.58854,0 17.38281,0 1.90234,-10.78841 3.80469,-21.57682 5.70703,-32.36523 -5.79427,0 -11.58854,0 -17.38281,0 -1.90234,10.78841 -3.80469,21.57682 -5.70703,32.36523 z" />
        <g
           aria-label="30"
           id="text11647"
           style="font-size:5.64444px;line-height:1.25;font-family:'Roboto Mono';-inkscape-font-specification:'Roboto Mono';text-align:center;text-anchor:middle;fill:#332255;stroke-width:0.264583"
           transform="translate(152.70662)">
          <path
             d="m 56.359547,240.12736 -0.07441,0.41341 0.385851,0.003 q 0.165364,0.006 0.297656,0.0524 0.132291,0.0469 0.220486,0.13505 0.08819,0.0882 0.129535,0.21773 0.04134,0.12954 0.02205,0.30041 -0.01929,0.17639 -0.09095,0.32246 -0.07166,0.14332 -0.184657,0.24254 -0.112999,0.10197 -0.264583,0.1571 -0.148828,0.0524 -0.327973,0.0469 -0.157096,-0.003 -0.278363,-0.0551 -0.121267,-0.0524 -0.198438,-0.14332 -0.07993,-0.0909 -0.118511,-0.21773 -0.03583,-0.12678 -0.0248,-0.28112 l -0.496094,-0.003 q -0.01378,0.25355 0.06339,0.4575 0.07717,0.20395 0.223242,0.34727 0.143316,0.14607 0.350021,0.226 0.206706,0.0799 0.454753,0.0854 0.272851,0.006 0.515386,-0.0744 0.242534,-0.0827 0.429947,-0.23978 0.184657,-0.15709 0.300412,-0.38034 0.118511,-0.22324 0.143316,-0.5016 0.01102,-0.14883 -0.01102,-0.28388 -0.02205,-0.1378 -0.07993,-0.25631 -0.06063,-0.11851 -0.162609,-0.20946 -0.09922,-0.0937 -0.239778,-0.15434 0.143316,-0.0634 0.272851,-0.15159 0.129536,-0.0882 0.234266,-0.20119 0.101975,-0.113 0.168121,-0.2508 0.06615,-0.14056 0.07993,-0.30593 0.02205,-0.2508 -0.0441,-0.45475 -0.06339,-0.20395 -0.198437,-0.35002 -0.137804,-0.14332 -0.338998,-0.22324 -0.198437,-0.0827 -0.446484,-0.0882 -0.250802,-0.003 -0.482313,0.0744 -0.228754,0.0772 -0.407899,0.22048 -0.1819,0.14607 -0.300412,0.35278 -0.115755,0.20671 -0.143316,0.46302 l 0.493338,-0.003 q 0.02756,-0.15709 0.09646,-0.28387 0.0689,-0.12954 0.176389,-0.22049 0.104731,-0.091 0.242535,-0.14056 0.137803,-0.0496 0.300412,-0.0468 0.157096,0.006 0.267339,0.0579 0.112999,0.0496 0.184657,0.14056 0.0689,0.091 0.09371,0.21773 0.02481,0.12402 0.0083,0.27285 -0.02205,0.17914 -0.104731,0.31419 -0.07993,0.13229 -0.20395,0.22049 -0.124023,0.091 -0.281119,0.1378 -0.15434,0.0469 -0.322461,0.0469 z"
             style="font-style:italic"
             id="path13382" />
          <path
             d="m 61.422456,240.83843 0.148828,-0.93431 q 0.01378,-0.10198 0.01654,-0.21222 0.0055,-0.11024 0.0028,-0.19844 -0.0055,-0.19568 -0.05788,-0.39411 -0.05237,-0.19844 -0.151584,-0.35554 -0.118511,-0.19292 -0.325217,-0.30868 -0.206706,-0.11851 -0.507118,-0.12678 -0.234266,-0.006 -0.427191,0.0551 -0.192925,0.0579 -0.347266,0.16537 -0.157096,0.11024 -0.278363,0.26183 -0.121267,0.15158 -0.209462,0.33072 -0.09095,0.17915 -0.148828,0.38034 -0.05788,0.19844 -0.08819,0.40239 l -0.148828,0.93982 q -0.0248,0.19017 -0.01929,0.38034 0.0055,0.19017 0.04685,0.3638 0.03858,0.17639 0.115755,0.32797 0.07717,0.15159 0.201193,0.26459 0.121267,0.113 0.289388,0.1819 0.170877,0.0661 0.391362,0.0717 0.184657,0.006 0.341754,-0.0303 0.159852,-0.0358 0.2949,-0.10473 0.206705,-0.10749 0.361045,-0.28663 0.157097,-0.17915 0.264584,-0.39412 0.08819,-0.17639 0.146071,-0.37483 0.05788,-0.20119 0.08819,-0.40514 z m -0.89848,-2.11115 q 0.176388,0.006 0.292143,0.0717 0.118512,0.0661 0.19017,0.17639 0.0689,0.11025 0.09646,0.25356 0.02756,0.14332 0.02481,0.30041 l -1.714278,1.19063 q 0.01102,-0.0441 0.01378,-0.0799 0.0055,-0.0358 0.01929,-0.11575 l 0.121267,-0.73312 q 0.01929,-0.12954 0.05236,-0.25631 0.03307,-0.12678 0.08268,-0.24254 0.05512,-0.12402 0.129536,-0.22875 0.07717,-0.10473 0.173633,-0.1819 0.09922,-0.0772 0.228754,-0.11852 0.129535,-0.0413 0.289388,-0.0358 z m -0.573264,3.2935 q -0.173633,-0.006 -0.292144,-0.0717 -0.115755,-0.0661 -0.184657,-0.17364 -0.07166,-0.10748 -0.101974,-0.24804 -0.02756,-0.14056 -0.02481,-0.2949 l 1.70601,-1.1796 q -0.01654,0.10473 -0.02756,0.16536 -0.01102,0.0579 -0.02481,0.14607 l -0.09646,0.58705 q -0.01929,0.12402 -0.05237,0.24804 -0.03032,0.12403 -0.07717,0.23703 -0.05788,0.14331 -0.151584,0.26734 -0.09095,0.12402 -0.21773,0.20395 -0.09095,0.0579 -0.206705,0.0882 -0.112999,0.0303 -0.248047,0.0248 z"
             style="font-style:italic"
             id="path13384" />
        </g>
        <g
           aria-label="*"
           id="text11651"
           style="font-size:5.64444px;line-height:1.25;font-family:'Roboto Mono';-inkscape-font-specification:'Roboto Mono';text-align:center;text-anchor:middle;fill:#f9accc;stroke-width:0.264583"
           transform="translate(152.70662)">
          <path
             d="m 65.330624,266.26561 -0.719335,0.90123 0.402387,0.29215 0.584287,-0.97565 0.5898,1.00045 0.402387,-0.30317 -0.705555,-0.89296 1.052821,-0.25908 -0.148828,-0.49058 -1.000455,0.41341 0.07993,-1.17684 h -0.490582 l 0.0689,1.16031 -1.005967,-0.41617 -0.148828,0.48231 z"
             id="path13387" />
        </g>
        <path
           id="path11653"
           style="fill:none;fill-opacity:1;stroke:#675ad5;stroke-width:0.529;stroke-linecap:round;stroke-linejoin:round;stroke-dasharray:none;stroke-dashoffset:0;stroke-opacity:1"
           d="m 218.36463,257.63699 h 19.50992 l 6.12624,-34.48265 h -19.55591"
           sodipodi:nodetypes="cccc" />
        <g
           aria-label="6"
           id="text11657"
           style="font-size:5.64444px;line-height:1.25;font-family:'Roboto Mono';-inkscape-font-specification:'Roboto Mono';text-align:center;text-anchor:middle;fill:#675ad5;stroke-width:0.264583"
           transform="translate(152.70662)">
          <path
             d="m 79.047948,238.36072 h -0.05512 q -0.34451,0 -0.631141,0.0854 -0.283876,0.0827 -0.51263,0.23426 -0.23151,0.15159 -0.410655,0.36105 -0.176389,0.20946 -0.305925,0.46302 -0.129535,0.25631 -0.214973,0.54846 -0.08544,0.29214 -0.129536,0.60358 l -0.03307,0.23978 q -0.03032,0.26734 0.01378,0.53743 0.04685,0.2701 0.176388,0.49058 0.129536,0.22049 0.341754,0.36105 0.214973,0.14056 0.520898,0.14883 0.300412,0.008 0.542946,-0.10198 0.242535,-0.11024 0.418924,-0.30317 0.176388,-0.19017 0.281119,-0.44373 0.107487,-0.25355 0.132292,-0.53467 0.02205,-0.23978 -0.02205,-0.47129 -0.0441,-0.23151 -0.159852,-0.41617 -0.115755,-0.1819 -0.305924,-0.2949 -0.19017,-0.11575 -0.460265,-0.12127 -0.135047,-0.003 -0.261827,0.0303 -0.126779,0.0303 -0.242534,0.0882 -0.101975,0.0524 -0.198438,0.12678 -0.09371,0.0717 -0.176388,0.1571 0.05512,-0.17363 0.126779,-0.33349 0.07166,-0.15985 0.159852,-0.29489 0.107487,-0.16537 0.245291,-0.29766 0.14056,-0.13229 0.305924,-0.22876 0.162608,-0.0854 0.355534,-0.13229 0.192925,-0.0469 0.418923,-0.0441 h 0.03307 z m -0.91226,1.81074 q 0.179144,0.006 0.292143,0.0909 0.115756,0.0854 0.181901,0.21497 0.06339,0.13229 0.07993,0.29215 0.01929,0.15709 0.0028,0.30592 -0.01929,0.17363 -0.08268,0.34451 -0.06339,0.17088 -0.170876,0.30592 -0.107487,0.13505 -0.259071,0.21498 -0.151584,0.0799 -0.347266,0.0744 -0.135047,-0.006 -0.234266,-0.0606 -0.09922,-0.0551 -0.165364,-0.14332 -0.06615,-0.0882 -0.107487,-0.20119 -0.03858,-0.113 -0.05788,-0.23427 -0.01929,-0.11851 -0.01929,-0.23978 0,-0.12126 0.01102,-0.22324 l 0.02205,-0.17639 q 0.06339,-0.11851 0.151584,-0.22324 0.08819,-0.10473 0.198437,-0.1819 0.107487,-0.0772 0.234266,-0.12127 0.129536,-0.0441 0.270096,-0.0386 z"
             style="font-style:italic"
             id="path13390" />
        </g>
        <path
           style="color:#000000;fill:#f9accc;stroke-linecap:round;stroke-linejoin:round;-inkscape-stroke:none"
           d="m 221.16016,247.96094 c -5.1288,-0.26034 -11.39947,1.0012 -18.31446,5.68554 a 0.26449999,0.26449999 0 0 0 -0.0703,0.36719 0.26449999,0.26449999 0 0 0 0.36719,0.0703 c 9.10512,-6.16799 16.99148,-6.30123 22.62109,-4.91211 5.62961,1.38913 8.97853,4.30274 8.97853,4.30274 a 0.26449999,0.26449999 0 0 0 0.37304,-0.0273 0.26449999,0.26449999 0 0 0 -0.0273,-0.37305 c 0,0 -3.44953,-2.99726 -9.19921,-4.41602 -1.43743,-0.35469 -3.01891,-0.61048 -4.72852,-0.69726 z"
           id="path14334" />
        <g
           id="g14326"
           transform="translate(95.250005)">
          <path
             style="color:#000000;fill:#f9accc;stroke-linecap:round;-inkscape-stroke:none"
             d="m 139.58984,250.85937 a 0.26449999,0.26449999 0 0 0 -0.24609,0.28125 l 0.13867,1.97461 -1.97461,0.13868 a 0.26449999,0.26449999 0 0 0 -0.24609,0.28125 0.26449999,0.26449999 0 0 0 0.2832,0.24609 l 2.50195,-0.17383 -0.17382,-2.5039 a 0.26449999,0.26449999 0 0 0 -0.28321,-0.24415 z"
             id="path14328" />
        </g>
      </g>
    </g>
    <g
       id="path16092">
      <path
         style="color:#000000;fill:#332255;fill-opacity:0.980392;stroke-linecap:round;stroke-linejoin:round;-inkscape-stroke:none"
         d="m 97.425781,196.32812 a 0.26449999,0.26449999 0 0 0 -0.263672,0.26368 v 10.86914 a 0.26449999,0.26449999 0 0 0 0.263672,0.26367 0.26449999,0.26449999 0 0 0 0.265625,-0.26367 V 196.5918 a 0.26449999,0.26449999 0 0 0 -0.265625,-0.26368 z"
         id="path16206" />
      <g
         id="g16198">
        <path
           style="color:#000000;fill:#332255;stroke-linecap:round;-inkscape-stroke:none"
           d="m 95.839844,205.74023 a 0.26449999,0.26449999 0 0 0 -0.1875,0.0781 0.26449999,0.26449999 0 0 0 0,0.375 l 1.773437,1.77344 1.775391,-1.77344 a 0.26449999,0.26449999 0 0 0 0,-0.375 0.26449999,0.26449999 0 0 0 -0.375,0 l -1.400391,1.40039 -1.398437,-1.40039 a 0.26449999,0.26449999 0 0 0 -0.1875,-0.0781 z"
           id="path16200" />
      </g>
    </g>
    <g
       id="path16132">
      <path
         style="color:#000000;fill:#332255;fill-opacity:0.980392;stroke-linecap:round;stroke-linejoin:round;-inkscape-stroke:none"
         d="m 54.623047,259.92969 a 0.26449999,0.26449999 0 0 0 -0.267578,0.26172 c -0.02565,3.3463 0.133307,6.55022 1.416015,8.8789 1.282709,2.32868 3.730622,3.71067 8.033203,3.35742 a 0.26449999,0.26449999 0 0 0 0.242188,-0.28515 0.26449999,0.26449999 0 0 0 -0.285156,-0.24219 c -4.177947,0.34301 -6.336124,-0.92335 -7.527344,-3.08594 -1.19122,-2.16259 -1.3751,-5.29343 -1.349609,-8.61914 a 0.26449999,0.26449999 0 0 0 -0.261719,-0.26562 z"
         id="path16222" />
      <g
         id="g16214">
        <path
           style="color:#000000;fill:#332255;stroke-linecap:round;-inkscape-stroke:none"
           d="m 62.375,270.5 a 0.26449999,0.26449999 0 0 0 -0.373047,0.0312 0.26449999,0.26449999 0 0 0 0.03125,0.37305 l 1.507813,1.27929 -1.279297,1.50977 a 0.26449999,0.26449999 0 0 0 0.03125,0.37305 0.26449999,0.26449999 0 0 0 0.371093,-0.0312 l 1.623047,-1.91211 z"
           id="path16216" />
      </g>
    </g>
    <g
       id="path16154">
      <path
         style="color:#000000;fill:#332255;fill-opacity:0.980392;stroke-linecap:round;stroke-linejoin:round;-inkscape-stroke:none"
         d="m 186.70898,204.75391 a 0.26449999,0.26449999 0 0 0 -0.26757,0.26367 c -0.0256,3.3463 0.13331,6.54827 1.41601,8.87695 1.2827,2.32868 3.73062,3.71066 8.0332,3.35742 a 0.26449999,0.26449999 0 0 0 0.24219,-0.28515 0.26449999,0.26449999 0 0 0 -0.28515,-0.24219 c -4.17795,0.34301 -6.33613,-0.92335 -7.52735,-3.08594 -1.19121,-2.16259 -1.37508,-5.29147 -1.34961,-8.61719 a 0.26449999,0.26449999 0 0 0 -0.26172,-0.26757 z"
         id="path16254" />
      <g
         id="g16246">
        <path
           style="color:#000000;fill:#332255;stroke-linecap:round;-inkscape-stroke:none"
           d="m 194.46094,215.32422 a 0.26449999,0.26449999 0 0 0 -0.37305,0.0312 0.26449999,0.26449999 0 0 0 0.0312,0.37305 l 1.50977,1.27929 -1.28125,1.51172 a 0.26449999,0.26449999 0 0 0 0.0312,0.37109 0.26449999,0.26449999 0 0 0 0.37109,-0.0293 l 1.62305,-1.91406 z"
           id="path16248" />
      </g>
    </g>
    <g
       id="path16158">
      <path
         style="color:#000000;fill:#332255;fill-opacity:0.980392;stroke-linecap:round;stroke-linejoin:round;-inkscape-stroke:none"
         d="m 208.02734,259.09375 a 0.26449999,0.26449999 0 0 0 -0.26757,0.26172 c -0.0256,3.3463 0.13136,6.55022 1.41406,8.8789 1.2827,2.32869 3.73257,3.71067 8.03515,3.35743 a 0.26449999,0.26449999 0 0 0 0.24219,-0.28516 0.26449999,0.26449999 0 0 0 -0.28515,-0.24219 c -4.17795,0.34301 -6.33613,-0.92334 -7.52735,-3.08593 -1.19121,-2.1626 -1.37508,-5.29343 -1.34961,-8.61915 a 0.26449999,0.26449999 0 0 0 -0.26172,-0.26562 z"
         id="path16270" />
      <g
         id="g16262">
        <path
           style="color:#000000;fill:#332255;stroke-linecap:round;-inkscape-stroke:none"
           d="m 215.7793,269.66406 a 0.26449999,0.26449999 0 0 0 -0.37305,0.0312 0.26449999,0.26449999 0 0 0 0.0293,0.37305 l 1.50976,1.2793 -1.27929,1.50976 a 0.26449999,0.26449999 0 0 0 0.0293,0.37305 0.26449999,0.26449999 0 0 0 0.37305,-0.0312 l 1.62305,-1.91211 z"
           id="path16264" />
      </g>
    </g>
    <g
       id="path16162">
      <path
         style="color:#000000;fill:#332255;fill-opacity:0.980392;stroke-linecap:round;stroke-linejoin:round;-inkscape-stroke:none"
         d="m 173.74414,180.27148 c -2.26591,1.34876 -3.90194,3.7668 -5.0957,6.95704 -1.19376,3.19023 -1.95085,7.16404 -2.44532,11.67968 -0.98892,9.03129 -0.92265,20.22945 -1.10546,31.58985 -0.18282,11.36039 -0.61569,22.88242 -2.58789,32.53515 -1.97221,9.65273 -5.48077,17.41076 -11.75977,21.32227 a 0.26449999,0.26449999 0 0 0 -0.084,0.36523 0.26449999,0.26449999 0 0 0 0.36328,0.084 c 6.46981,-4.03038 10.01432,-11.94735 12,-21.66602 1.98567,-9.71867 2.41472,-21.2648 2.59765,-32.63281 0.18294,-11.36801 0.11808,-22.55939 1.10157,-31.54102 0.49174,-4.49081 1.24713,-8.42702 2.41601,-11.55078 1.16888,-3.12375 2.74612,-5.4238 4.86914,-6.6875 a 0.26449999,0.26449999 0 0 0 0.0937,-0.36133 0.26449999,0.26449999 0 0 0 -0.36328,-0.0937 z"
         id="path16238" />
      <g
         id="g16230">
        <path
           style="color:#000000;fill:#332255;stroke-linecap:round;-inkscape-stroke:none"
           d="m 171.88281,179.62305 a 0.26449999,0.26449999 0 0 0 -0.32226,0.1914 0.26449999,0.26449999 0 0 0 0.1914,0.32227 l 1.91992,0.48633 -0.48828,1.91992 a 0.26449999,0.26449999 0 0 0 0.19141,0.32031 0.26449999,0.26449999 0 0 0 0.32227,-0.19141 l 0.61718,-2.43164 z"
           id="path16232" />
      </g>
    </g>
  </g>
</svg>
