<?xml version="1.0" encoding="UTF-8" standalone="no"?>
<!-- Created with Inkscape (http://www.inkscape.org/) -->

<svg
   sodipodi:docname="fig-map-1.svg"
   id="svg5"
   version="1.1"
   viewBox="0 0 123.83878 66.218994"
   height="66.218994mm"
   width="123.83878mm"
   inkscape:version="1.2.2 (732a01da63, 2022-12-09)"
   xmlns:inkscape="http://www.inkscape.org/namespaces/inkscape"
   xmlns:sodipodi="http://sodipodi.sourceforge.net/DTD/sodipodi-0.dtd"
   xmlns="http://www.w3.org/2000/svg"
   xmlns:svg="http://www.w3.org/2000/svg">
  <sodipodi:namedview
     id="namedview7"
     pagecolor="#ffffff"
     bordercolor="#666666"
     borderopacity="1.0"
     inkscape:showpageshadow="2"
     inkscape:pageopacity="0.0"
     inkscape:pagecheckerboard="0"
     inkscape:deskcolor="#d1d1d1"
     inkscape:document-units="mm"
     showgrid="false"
     inkscape:zoom="0.97386896"
     inkscape:cx="357.85102"
     inkscape:cy="213.06768"
     inkscape:window-width="1920"
     inkscape:window-height="992"
     inkscape:window-x="-8"
     inkscape:window-y="-8"
     inkscape:window-maximized="1"
     inkscape:current-layer="layer1" />
  <defs
     id="defs2" />
  <g
     inkscape:label="Layer 1"
     inkscape:groupmode="layer"
     id="layer1"
     transform="translate(-13.82859,-58.200101)">
    <g
       aria-label="(map add1 '(0 6 1 8))"
       transform="scale(1.0000701,0.99992995)"
       id="text113"
       style="font-size:8.48427px;line-height:1.25;font-family:'Roboto Mono';-inkscape-font-specification:'Roboto Mono';fill:#332255;stroke-width:0.265">
      <path
         d="m 23.809647,62.562309 v 0.04143 q 0,0.592408 0.09114,1.114389 0.09528,0.521982 0.252705,0.965252 0.153281,0.447412 0.356273,0.811971 0.207136,0.368701 0.434985,0.654548 0.223706,0.28999 0.451555,0.48884 0.231992,0.202992 0.439128,0.318988 l 0.161565,-0.468126 Q 25.827147,66.352889 25.657296,66.158181 25.491588,65.967617 25.334165,65.719054 25.180884,65.458063 25.040032,65.126647 24.89918,64.799372 24.79147,64.4141 q -0.09943,-0.381129 -0.157423,-0.832684 -0.058,-0.451556 -0.058,-0.969394 v -0.058 q 0,-0.538553 0.06214,-1.006679 0.06214,-0.468126 0.173994,-0.857541 0.115996,-0.430842 0.28999,-0.791258 0.173994,-0.364558 0.364558,-0.633834 0.128424,-0.173994 0.260991,-0.314846 0.13671,-0.140852 0.269276,-0.240277 l -0.161565,-0.505411 q -0.207136,0.115996 -0.434985,0.318989 -0.227849,0.202993 -0.451555,0.48884 -0.227849,0.285847 -0.434985,0.654548 -0.202993,0.368701 -0.360416,0.811971 -0.157423,0.447413 -0.252705,0.969394 -0.09114,0.521981 -0.09114,1.114389 z"
         id="path15049" />
      <path
         d="m 28.495052,60.528238 h -0.687689 v 4.482413 h 0.729117 v -3.566874 q 0.02486,-0.06628 0.06214,-0.124281 0.04143,-0.058 0.09528,-0.103568 0.07043,-0.058 0.169851,-0.087 0.103567,-0.03314 0.240277,-0.03314 0.124281,0 0.215421,0.03314 0.09528,0.029 0.157423,0.09528 0.06628,0.07043 0.09528,0.178136 0.03314,0.107711 0.03314,0.248563 v 3.359738 h 0.729117 v -3.355595 q 0,-0.02486 0,-0.04143 0,-0.02071 0,-0.04143 0.01243,-0.103567 0.04971,-0.186422 0.03729,-0.087 0.103568,-0.15328 0.06628,-0.06214 0.165708,-0.09942 0.09943,-0.03728 0.236135,-0.03728 0.128424,0 0.223706,0.03314 0.09943,0.03314 0.165709,0.09942 0.06214,0.07043 0.09528,0.178137 0.03314,0.10771 0.03314,0.248563 v 3.355595 h 0.729117 v -3.34731 q 0,-0.323131 -0.07457,-0.559266 -0.07457,-0.240277 -0.215421,-0.389415 -0.128424,-0.132566 -0.314846,-0.19885 -0.186422,-0.07043 -0.418414,-0.07043 -0.169851,0.0041 -0.314846,0.04557 -0.140852,0.04143 -0.256848,0.111853 -0.09114,0.06214 -0.169851,0.144995 -0.07871,0.08285 -0.136709,0.178137 -0.04557,-0.103568 -0.111854,-0.186422 -0.06214,-0.08286 -0.140852,-0.140853 -0.10771,-0.07457 -0.252705,-0.111853 -0.140852,-0.04143 -0.318989,-0.04143 -0.314846,0.0041 -0.538552,0.13671 -0.219564,0.132566 -0.356273,0.368701 z"
         style="fill:#f9accc"
         id="path15051" />
      <path
         d="m 36.179779,65.010651 h 0.799544 v -0.06628 Q 36.904754,64.757945 36.863327,64.509383 36.8219,64.256677 36.8219,64.032971 v -2.083783 q 0,-0.376987 -0.13671,-0.658691 -0.136709,-0.281704 -0.372844,-0.472269 -0.240277,-0.186422 -0.567551,-0.277561 -0.327274,-0.09528 -0.708403,-0.09528 -0.418414,0 -0.749831,0.115996 -0.327274,0.115996 -0.555123,0.302418 -0.231992,0.190565 -0.356273,0.426699 -0.120139,0.236135 -0.124281,0.480554 h 0.770544 q 0,-0.140852 0.06628,-0.269276 0.07043,-0.132566 0.194707,-0.227849 0.124282,-0.09528 0.302418,-0.15328 0.182279,-0.058 0.410128,-0.058 0.24442,0 0.439128,0.06214 0.19885,0.06214 0.335559,0.173993 0.13671,0.115996 0.211278,0.277562 0.07457,0.161566 0.07457,0.364559 v 0.35213 h -0.836827 q -0.468126,0 -0.849256,0.09114 -0.376986,0.09114 -0.646263,0.273419 -0.269276,0.186422 -0.418413,0.463984 -0.144995,0.277561 -0.144995,0.646263 0,0.281704 0.10771,0.526124 0.111854,0.240277 0.314846,0.414271 0.19885,0.178136 0.484697,0.281704 0.28999,0.103568 0.646263,0.103568 0.219564,0 0.414271,-0.04557 0.194708,-0.04557 0.368701,-0.124281 0.169851,-0.07871 0.310704,-0.18228 0.144994,-0.103567 0.26099,-0.219563 0.01243,0.140852 0.03728,0.273419 0.029,0.128424 0.07457,0.215421 z m -1.354666,-0.584122 q -0.223706,0 -0.393557,-0.058 -0.169851,-0.058 -0.281704,-0.161566 -0.111854,-0.09942 -0.169852,-0.240277 -0.05385,-0.140852 -0.05385,-0.306561 0,-0.173994 0.06214,-0.310703 0.06628,-0.13671 0.190565,-0.236135 0.173993,-0.140852 0.468126,-0.207135 0.298275,-0.07043 0.695975,-0.07043 h 0.712546 v 0.907253 q -0.06628,0.132567 -0.182279,0.256848 -0.115996,0.120139 -0.273419,0.215421 -0.161566,0.09528 -0.356273,0.153281 -0.194707,0.058 -0.418414,0.058 z"
         style="fill:#f9accc"
         id="path15053" />
      <path
         d="m 38.321561,66.734018 h 0.766401 v -2.154209 q 0.08285,0.09114 0.178136,0.169851 0.09528,0.07457 0.202993,0.136709 0.178137,0.09942 0.3977,0.153281 0.223707,0.05385 0.480555,0.05385 0.422556,0 0.74983,-0.173994 0.331417,-0.173994 0.555123,-0.480554 0.223707,-0.306561 0.339703,-0.720832 0.115996,-0.418414 0.115996,-0.898968 v -0.087 q 0,-0.501268 -0.115996,-0.919681 -0.115996,-0.422557 -0.339703,-0.724975 -0.223706,-0.302418 -0.555123,-0.472269 -0.331417,-0.169851 -0.762258,-0.169851 -0.24442,0 -0.459841,0.05386 -0.211278,0.04971 -0.385272,0.149138 -0.124281,0.06628 -0.231992,0.161566 -0.10771,0.09114 -0.19885,0.207135 l -0.03728,-0.48884 h -0.700118 z m 3.020035,-4.001858 v 0.087 q 0,0.327274 -0.07457,0.625549 -0.07043,0.298275 -0.219563,0.526124 -0.149138,0.227849 -0.38113,0.364559 -0.231991,0.132567 -0.55098,0.132567 -0.19885,0 -0.364558,-0.04971 -0.161566,-0.04971 -0.294133,-0.136709 -0.115996,-0.07457 -0.207135,-0.18228 -0.09114,-0.10771 -0.161566,-0.231991 v -2.158352 q 0.07871,-0.140852 0.182279,-0.256848 0.103568,-0.115996 0.236135,-0.194708 0.120138,-0.07871 0.269276,-0.120138 0.15328,-0.04143 0.331417,-0.04143 0.323131,0 0.555123,0.132566 0.231991,0.132567 0.385272,0.356273 0.149137,0.22785 0.219563,0.526125 0.07457,0.294132 0.07457,0.621406 z"
         style="fill:#f9accc"
         id="path15055" />
      <path
         d="m 51.453951,65.010651 h 0.799543 v -0.06628 q -0.07457,-0.186422 -0.115996,-0.434984 -0.04143,-0.252706 -0.04143,-0.476412 v -2.083783 q 0,-0.376987 -0.136709,-0.658691 -0.136709,-0.281704 -0.372844,-0.472269 -0.240277,-0.186422 -0.567551,-0.277561 -0.327274,-0.09528 -0.708404,-0.09528 -0.418413,0 -0.74983,0.115996 -0.327274,0.115996 -0.555123,0.302418 -0.231992,0.190565 -0.356273,0.426699 -0.120139,0.236135 -0.124282,0.480554 h 0.770544 q 0,-0.140852 0.06628,-0.269276 0.07043,-0.132566 0.194707,-0.227849 0.124281,-0.09528 0.302418,-0.15328 0.182279,-0.058 0.410128,-0.058 0.24442,0 0.439128,0.06214 0.19885,0.06214 0.335559,0.173993 0.136709,0.115996 0.211278,0.277562 0.07457,0.161566 0.07457,0.364559 v 0.35213 h -0.836827 q -0.468127,0 -0.849256,0.09114 -0.376987,0.09114 -0.646263,0.273419 -0.269276,0.186422 -0.418413,0.463984 -0.144995,0.277561 -0.144995,0.646263 0,0.281704 0.10771,0.526124 0.111853,0.240277 0.314846,0.414271 0.19885,0.178136 0.484697,0.281704 0.28999,0.103568 0.646263,0.103568 0.219564,0 0.414271,-0.04557 0.194707,-0.04557 0.368701,-0.124281 0.169851,-0.07871 0.310703,-0.18228 0.144995,-0.103567 0.260991,-0.219563 0.01243,0.140852 0.03728,0.273419 0.029,0.128424 0.07457,0.215421 z m -1.354666,-0.584122 q -0.223706,0 -0.393557,-0.058 -0.169851,-0.058 -0.281705,-0.161566 -0.111853,-0.09942 -0.169851,-0.240277 -0.05385,-0.140852 -0.05385,-0.306561 0,-0.173994 0.06214,-0.310703 0.06628,-0.13671 0.190564,-0.236135 0.173994,-0.140852 0.468127,-0.207135 0.298275,-0.07043 0.695975,-0.07043 h 0.712546 v 0.907253 q -0.06628,0.132567 -0.182279,0.256848 -0.115996,0.120139 -0.273419,0.215421 -0.161566,0.09528 -0.356273,0.153281 -0.194708,0.058 -0.418414,0.058 z"
         style="fill:#5749d1"
         id="path15057" />
      <path
         d="m 53.45488,62.73216 v 0.087 q 0,0.480554 0.128424,0.898968 0.128424,0.414271 0.360416,0.720832 0.231992,0.30656 0.559266,0.480554 0.331417,0.173994 0.737402,0.173994 0.414271,0 0.724975,-0.140852 0.310703,-0.140852 0.534409,-0.414271 l 0.03314,0.472269 h 0.704261 v -6.363203 h -0.766402 v 2.32406 q -0.219563,-0.256848 -0.521981,-0.389414 -0.298275,-0.13671 -0.700118,-0.13671 -0.410129,0 -0.741545,0.169851 -0.331417,0.169851 -0.563409,0.472269 -0.236134,0.302418 -0.364558,0.724975 -0.124282,0.418413 -0.124282,0.919681 z m 0.766402,0.087 v -0.087 q 0,-0.327274 0.07043,-0.621406 0.07043,-0.298275 0.219563,-0.526125 0.144995,-0.223706 0.372844,-0.356273 0.231992,-0.132566 0.555123,-0.132566 0.376987,0 0.629692,0.178136 0.252706,0.173994 0.401843,0.447413 v 2.07964 q -0.149137,0.294133 -0.401843,0.468127 -0.252705,0.173993 -0.637977,0.173993 -0.318989,0 -0.546838,-0.128424 -0.227849,-0.132566 -0.372844,-0.356273 -0.149137,-0.223706 -0.219563,-0.517838 -0.07043,-0.294133 -0.07043,-0.621407 z"
         style="fill:#5749d1"
         id="path15059" />
      <path
         d="m 58.546269,62.73216 v 0.087 q 0,0.480554 0.128424,0.898968 0.128424,0.414271 0.360416,0.720832 0.231992,0.30656 0.559266,0.480554 0.331416,0.173994 0.737402,0.173994 0.414271,0 0.724974,-0.140852 0.310703,-0.140852 0.53441,-0.414271 l 0.03314,0.472269 h 0.70426 v -6.363203 h -0.766401 v 2.32406 q -0.219564,-0.256848 -0.521982,-0.389414 -0.298275,-0.13671 -0.700118,-0.13671 -0.410128,0 -0.741545,0.169851 -0.331416,0.169851 -0.563408,0.472269 -0.236135,0.302418 -0.364559,0.724975 -0.124281,0.418413 -0.124281,0.919681 z m 0.766401,0.087 v -0.087 q 0,-0.327274 0.07043,-0.621406 0.07043,-0.298275 0.219564,-0.526125 0.144995,-0.223706 0.372844,-0.356273 0.231992,-0.132566 0.555123,-0.132566 0.376987,0 0.629692,0.178136 0.252705,0.173994 0.401843,0.447413 v 2.07964 q -0.149138,0.294133 -0.401843,0.468127 -0.252705,0.173993 -0.637977,0.173993 -0.318989,0 -0.546838,-0.128424 -0.227849,-0.132566 -0.372844,-0.356273 -0.149138,-0.223706 -0.219564,-0.517838 -0.07043,-0.294133 -0.07043,-0.621407 z"
         style="fill:#5749d1"
         id="path15061" />
      <path
         d="m 66.268282,65.010651 v -6.031786 h -0.06214 l -2.282634,0.878254 v 0.700118 l 1.578373,-0.600693 v 5.054107 z"
         style="fill:#5749d1"
         id="path15063" />
      <path
         d="m 75.949796,59.107289 v -0.459841 h -0.654549 v 0.526124 l -0.0041,1.458234 h 0.571694 z"
         id="path15065" />
      <path
         d="m 79.814942,62.562309 v 0.04143 q 0,0.592408 0.09114,1.114389 0.09528,0.521982 0.252705,0.965252 0.15328,0.447412 0.356273,0.811971 0.207136,0.368701 0.434985,0.654548 0.223706,0.28999 0.451555,0.48884 0.231992,0.202992 0.439127,0.318988 l 0.161566,-0.468126 q -0.169851,-0.136709 -0.339702,-0.331417 -0.165709,-0.190564 -0.323132,-0.439127 -0.15328,-0.260991 -0.294132,-0.592407 -0.140852,-0.327275 -0.248563,-0.712547 -0.09942,-0.381129 -0.157423,-0.832684 -0.058,-0.451556 -0.058,-0.969394 v -0.058 q 0,-0.538553 0.06214,-1.006679 0.06214,-0.468126 0.173994,-0.857541 0.115996,-0.430842 0.28999,-0.791258 0.173994,-0.364558 0.364558,-0.633834 0.128424,-0.173994 0.260991,-0.314846 0.136709,-0.140852 0.269276,-0.240277 l -0.161566,-0.505411 q -0.207135,0.115996 -0.434984,0.318989 -0.227849,0.202993 -0.451556,0.48884 -0.227849,0.285847 -0.434984,0.654548 -0.202993,0.368701 -0.360416,0.811971 -0.157423,0.447413 -0.252705,0.969394 -0.09114,0.521981 -0.09114,1.114389 z"
         id="path15067" />
      <path
         d="m 87.934656,62.703161 v -1.412664 q 0,-0.575837 -0.132567,-1.019107 -0.132567,-0.447412 -0.381129,-0.753973 -0.252706,-0.30656 -0.617264,-0.463983 -0.360416,-0.161566 -0.824399,-0.161566 -0.459841,0 -0.8244,0.161566 -0.360415,0.157423 -0.608978,0.463983 -0.252705,0.306561 -0.385272,0.753973 -0.132567,0.44327 -0.132567,1.019107 v 1.412664 q 0,0.575837 0.132567,1.02325 0.132567,0.44327 0.385272,0.745687 0.252705,0.310704 0.617264,0.468127 0.364558,0.15328 0.824399,0.15328 0.463984,0 0.824399,-0.157423 0.360416,-0.157423 0.608979,-0.463984 0.248562,-0.302417 0.381129,-0.745687 0.132567,-0.447413 0.132567,-1.02325 z m -3.136032,-0.15328 q 0,-0.107711 0,-0.211278 0,-0.103568 0,-0.207136 v -1.010821 q 0,-0.422556 0.08285,-0.741545 0.087,-0.323132 0.260991,-0.526124 0.144995,-0.161566 0.352131,-0.24442 0.211278,-0.087 0.484697,-0.087 0.269276,0 0.472269,0.07871 0.207135,0.07871 0.347987,0.236135 0.144995,0.15328 0.227849,0.385272 0.087,0.227849 0.120139,0.526124 z m 2.365488,0.314846 q 0,0.44327 -0.09114,0.770544 -0.087,0.327274 -0.277562,0.530267 -0.140852,0.149137 -0.343844,0.227849 -0.202993,0.07871 -0.463984,0.07871 -0.248563,0 -0.447413,-0.07043 -0.19885,-0.07457 -0.339702,-0.215421 -0.15328,-0.149137 -0.248562,-0.376986 -0.09528,-0.231992 -0.132567,-0.53441 l 2.344774,-1.793793 q 0,0.115996 0,0.294132 0,0.173994 0,0.236135 z"
         id="path15069" />
      <path
         d="m 97.156324,58.974722 h -0.06628 q -0.646263,0 -1.155816,0.182279 -0.509553,0.178137 -0.865826,0.53441 -0.517839,0.517839 -0.695976,1.246956 -0.178136,0.729117 -0.178136,1.48309 v 0.360416 q 0,0.439127 0.132566,0.878254 0.132567,0.434985 0.401843,0.762259 0.240278,0.298275 0.592408,0.484697 0.35213,0.186422 0.816114,0.186422 0.459841,0 0.807828,-0.161566 0.352131,-0.161566 0.588265,-0.44327 0.236134,-0.277561 0.35213,-0.650405 0.120139,-0.372844 0.120139,-0.795401 0,-0.368701 -0.09942,-0.724974 -0.09942,-0.356273 -0.310703,-0.637977 -0.211279,-0.281704 -0.538553,-0.451556 -0.327274,-0.173993 -0.778829,-0.173993 -0.207136,0 -0.3977,0.04971 -0.186422,0.04557 -0.347988,0.124281 -0.165708,0.08286 -0.30656,0.194708 -0.140853,0.10771 -0.248563,0.236134 0.02486,-0.3977 0.157423,-0.774687 0.136709,-0.376986 0.3977,-0.650405 0.248563,-0.260991 0.629692,-0.414271 0.381129,-0.157423 0.927967,-0.157423 h 0.06628 z m -1.002535,2.717618 q 0.277561,0 0.484697,0.115996 0.207135,0.115996 0.343845,0.310703 0.136709,0.194707 0.202992,0.447413 0.06628,0.248562 0.06628,0.513696 0,0.298275 -0.07457,0.555123 -0.07043,0.252705 -0.211278,0.434984 -0.144995,0.18228 -0.352131,0.285847 -0.207135,0.103568 -0.476411,0.103568 -0.231992,0 -0.44327,-0.10771 -0.211278,-0.111853 -0.372844,-0.323132 -0.161566,-0.211278 -0.256848,-0.517838 -0.09528,-0.310704 -0.09528,-0.708404 v -0.256848 q 0.07043,-0.190564 0.190564,-0.347987 0.120139,-0.157423 0.277562,-0.269277 0.157423,-0.111853 0.339702,-0.173993 0.182279,-0.06214 0.376987,-0.06214 z"
         id="path15071" />
      <path
         d="m 106.99941,65.010651 v -6.031786 h -0.0621 l -2.28264,0.878254 v 0.700118 l 1.57838,-0.600693 v 5.054107 z"
         id="path15073" />
      <path
         d="m 118.40843,60.553095 q 0,-0.393558 -0.13671,-0.700118 -0.1367,-0.310704 -0.37698,-0.521982 -0.24028,-0.211278 -0.56755,-0.323131 -0.32728,-0.111853 -0.70841,-0.111853 -0.38527,0 -0.71254,0.111853 -0.32313,0.111853 -0.55513,0.323131 -0.23613,0.211278 -0.3687,0.521982 -0.13256,0.30656 -0.13256,0.700118 0,0.223706 0.0621,0.426699 0.0621,0.202993 0.17399,0.372844 0.11185,0.173994 0.27342,0.314846 0.16157,0.136709 0.36042,0.236134 -0.232,0.09942 -0.41842,0.248563 -0.18642,0.149137 -0.31899,0.335559 -0.13256,0.190565 -0.20299,0.418414 -0.0704,0.223706 -0.0704,0.476412 0,0.414271 0.14914,0.733259 0.14914,0.318989 0.41013,0.53441 0.25685,0.219563 0.60484,0.331417 0.35213,0.111853 0.75811,0.111853 0.3977,0 0.74569,-0.111853 0.34799,-0.115996 0.60898,-0.33556 0.25685,-0.215421 0.40598,-0.534409 0.15328,-0.318989 0.15328,-0.729117 0,-0.252706 -0.0746,-0.476412 -0.0704,-0.223706 -0.203,-0.414271 -0.13671,-0.190565 -0.32727,-0.33556 -0.18642,-0.149137 -0.41842,-0.248562 0.13257,-0.06628 0.24857,-0.149138 0.11599,-0.08285 0.21128,-0.178136 0.19885,-0.19885 0.3107,-0.459841 0.11185,-0.265134 0.11599,-0.567551 z m -0.62969,2.8129 q 0,0.26099 -0.087,0.468126 -0.0829,0.202993 -0.232,0.343845 -0.15328,0.140852 -0.36455,0.215421 -0.21128,0.07457 -0.46399,0.07457 -0.26513,0 -0.48055,-0.07457 -0.21128,-0.07457 -0.36042,-0.215421 -0.14914,-0.140852 -0.23199,-0.343845 -0.0787,-0.207136 -0.0787,-0.468126 0,-0.252706 0.0787,-0.463984 0.0828,-0.211278 0.23199,-0.364558 0.14914,-0.149138 0.36042,-0.231992 0.21128,-0.08285 0.47227,-0.08285 0.2527,0 0.46398,0.08285 0.21542,0.08285 0.3687,0.231992 0.15328,0.15328 0.23614,0.364558 0.087,0.211278 0.087,0.463984 z m -0.14085,-2.800472 q 0,0.231992 -0.0746,0.422556 -0.0746,0.190565 -0.20713,0.323132 -0.13671,0.136709 -0.32314,0.211278 -0.18642,0.07043 -0.40598,0.07043 -0.22371,0 -0.41013,-0.07043 -0.18228,-0.07457 -0.31485,-0.211278 -0.1367,-0.132567 -0.21127,-0.318989 -0.0704,-0.190565 -0.0704,-0.426699 0,-0.236135 0.0704,-0.426699 0.0746,-0.194708 0.20713,-0.331417 0.13257,-0.13671 0.31485,-0.207136 0.18228,-0.07457 0.40598,-0.07457 0.22371,0 0.41013,0.07871 0.18642,0.07457 0.32313,0.211278 0.13257,0.140852 0.20714,0.331417 0.0787,0.190565 0.0787,0.418414 z"
         id="path15075" />
      <path
         d="m 122.58428,62.603736 v -0.04143 q 0,-0.633835 -0.0994,-1.139245 -0.0953,-0.509554 -0.24442,-0.944538 -0.15328,-0.451556 -0.35628,-0.811971 -0.20299,-0.360416 -0.43498,-0.654548 -0.22371,-0.285847 -0.4557,-0.48884 -0.23199,-0.202993 -0.43913,-0.318989 l -0.16156,0.468126 q 0.13671,0.111853 0.2817,0.273419 0.145,0.157423 0.28171,0.368701 0.17813,0.269277 0.34798,0.633835 0.16985,0.360416 0.28999,0.816114 0.0829,0.318989 0.14914,0.774687 0.0704,0.455698 0.0704,1.014964 v 0.058 q 0,0.492982 -0.0539,0.927967 -0.0497,0.430841 -0.14499,0.803685 -0.0911,0.401843 -0.23614,0.737403 -0.14085,0.339702 -0.29413,0.608978 -0.16157,0.265134 -0.3397,0.468126 -0.17814,0.202993 -0.35213,0.331417 l 0.16156,0.468126 q 0.20714,-0.115996 0.43499,-0.318988 0.23199,-0.19885 0.45984,-0.48884 0.2237,-0.285847 0.4267,-0.654548 0.20713,-0.364559 0.36456,-0.811971 0.15742,-0.44327 0.24856,-0.965252 0.0953,-0.521981 0.0953,-1.114389 z"
         id="path15077" />
      <path
         d="m 127.67567,62.603736 v -0.04143 q 0,-0.633835 -0.0994,-1.139245 -0.0953,-0.509554 -0.24442,-0.944538 -0.15328,-0.451556 -0.35628,-0.811971 -0.20299,-0.360416 -0.43498,-0.654548 -0.22371,-0.285847 -0.4557,-0.48884 -0.23199,-0.202993 -0.43912,-0.318989 l -0.16157,0.468126 q 0.13671,0.111853 0.2817,0.273419 0.145,0.157423 0.28171,0.368701 0.17813,0.269277 0.34799,0.633835 0.16985,0.360416 0.28999,0.816114 0.0829,0.318989 0.14913,0.774687 0.0704,0.455698 0.0704,1.014964 v 0.058 q 0,0.492982 -0.0539,0.927967 -0.0497,0.430841 -0.14499,0.803685 -0.0911,0.401843 -0.23614,0.737403 -0.14085,0.339702 -0.29413,0.608978 -0.16156,0.265134 -0.3397,0.468126 -0.17814,0.202993 -0.35213,0.331417 l 0.16157,0.468126 q 0.20713,-0.115996 0.43498,-0.318988 0.23199,-0.19885 0.45984,-0.48884 0.22371,-0.285847 0.4267,-0.654548 0.20714,-0.364559 0.36456,-0.811971 0.15742,-0.44327 0.24856,-0.965252 0.0953,-0.521981 0.0953,-1.114389 z"
         id="path15079" />
    </g>
    <g
       aria-label="0
6
1
8"
       transform="scale(1.0000701,0.99992995)"
       id="text3080"
       style="font-size:8.48427px;line-height:1.25;font-family:'Roboto Slab';-inkscape-font-specification:'Roboto Slab';text-align:center;text-anchor:middle;fill:#332255;stroke-width:0.529167">
      <path
         d="m 18.36199,90.697982 q -0.88654,0 -1.404379,-0.617264 -0.517839,-0.617264 -0.517839,-1.768937 v -1.429235 q 0,-1.151674 0.513697,-1.768937 0.513696,-0.621407 1.400236,-0.621407 0.890682,0 1.408521,0.621407 0.517839,0.617263 0.517839,1.768937 v 1.429235 q 0,1.155816 -0.513696,1.77308 -0.513696,0.613121 -1.404379,0.613121 z m 0,-0.637978 q 0.542695,0 0.820257,-0.3977 0.281704,-0.3977 0.281704,-1.184815 v -1.768937 q 0,-0.782972 -0.285847,-1.17653 -0.281704,-0.3977 -0.824399,-0.3977 -0.53441,0 -0.816114,0.3977 -0.281705,0.393558 -0.281705,1.17653 v 1.768937 q 0,0.782972 0.285847,1.184815 0.285847,0.3977 0.820257,0.3977 z"
         id="path15082" />
      <path
         d="m 18.531841,101.30332 q -0.588265,0 -1.052248,-0.28585 -0.459841,-0.28999 -0.724975,-0.84097 -0.265133,-0.550978 -0.265133,-1.33395 v -0.811972 q 0,-0.956966 0.285847,-1.607371 0.28999,-0.654548 0.7954,-0.990108 0.509554,-0.335559 1.168245,-0.335559 0.30656,0 0.608978,0.07043 0.30656,0.07043 0.505411,0.178136 l -0.157423,0.608979 q -0.194708,-0.09528 -0.4267,-0.153281 -0.231991,-0.06214 -0.530266,-0.06214 -0.633835,0 -1.010822,0.480554 -0.372844,0.476412 -0.3977,1.441663 l 0.01657,0.01657 q 0.231992,-0.215421 0.567551,-0.339702 0.33556,-0.128424 0.724974,-0.128424 0.538553,0 0.936253,0.256848 0.3977,0.252705 0.613121,0.700118 0.219564,0.447413 0.219564,1.019107 0,0.625549 -0.231992,1.101965 -0.231992,0.47641 -0.654548,0.74568 -0.422557,0.26928 -0.990108,0.26928 z m 0,-0.63798 q 0.33556,0 0.571694,-0.19471 0.236134,-0.1947 0.360416,-0.530262 0.128424,-0.33556 0.128424,-0.753973 0,-0.596551 -0.302418,-0.981823 -0.298275,-0.385272 -0.828542,-0.385272 -0.277562,0 -0.505411,0.07871 -0.223706,0.07457 -0.389414,0.215421 -0.161566,0.136709 -0.265134,0.323131 v 0.484697 q 0,0.84097 0.347988,1.292529 0.35213,0.45155 0.882397,0.45155 z"
         id="path15084" />
      <path
         d="m 17.110892,111.82166 v -0.52198 l 0.932109,-0.116 v -4.51969 l -0.94868,0.0166 V 106.171 l 1.764794,-0.38113 v 5.39381 l 0.927967,0.116 v 0.52198 z"
         id="path15086" />
      <path
         d="m 18.359919,122.51399 q -0.592408,0 -1.035678,-0.1947 -0.439127,-0.19885 -0.683547,-0.57998 -0.24442,-0.38527 -0.24442,-0.94454 0,-0.50955 0.306561,-0.89897 0.30656,-0.38941 0.828542,-0.57169 -0.451556,-0.174 -0.708404,-0.52613 -0.256848,-0.35627 -0.256848,-0.82854 0,-0.53027 0.223706,-0.89897 0.223707,-0.37284 0.62555,-0.56755 0.401843,-0.19471 0.936252,-0.19471 0.530267,0 0.936253,0.19471 0.405985,0.19471 0.633834,0.56755 0.231992,0.3687 0.231992,0.89897 0,0.47227 -0.265133,0.82854 -0.265134,0.35213 -0.716689,0.52613 0.521981,0.18228 0.832684,0.57169 0.314846,0.38942 0.314846,0.89897 0,0.55927 -0.248562,0.94454 -0.248563,0.38113 -0.691833,0.57998 -0.439127,0.1947 -1.019106,0.1947 z m 0,-0.63797 q 0.339702,0 0.59655,-0.13257 0.260991,-0.13257 0.405985,-0.37699 0.144995,-0.24856 0.144995,-0.58826 0,-0.33142 -0.149137,-0.58827 -0.149138,-0.25684 -0.410129,-0.40184 -0.26099,-0.14499 -0.59655,-0.14499 -0.335559,0 -0.592407,0.14499 -0.256848,0.145 -0.401843,0.40184 -0.144995,0.25271 -0.144995,0.58827 0,0.5137 0.310703,0.80783 0.314846,0.28999 0.836828,0.28999 z m 0,-2.87504 q 0.285847,0 0.50541,-0.12428 0.223707,-0.12843 0.347988,-0.35628 0.124281,-0.22785 0.124281,-0.53441 0,-0.29827 -0.128424,-0.53026 -0.128424,-0.23614 -0.35213,-0.36871 -0.219564,-0.1367 -0.505411,-0.1367 -0.434984,0 -0.704261,0.28584 -0.265133,0.28171 -0.265133,0.74983 0,0.45984 0.269276,0.7374 0.269276,0.27757 0.708404,0.27757 z"
         id="path15088" />
    </g>
    <path
       id="rect3638"
       style="fill:none;stroke:#332255;stroke-width:0.529167;stroke-linecap:round;stroke-linejoin:round;stroke-dasharray:none"
       d="M 16.350514,123.95537 H 14.093173 V 83.036327 h 2.257341"
       sodipodi:nodetypes="cccc" />
    <path
       id="path3693"
       style="fill:none;stroke:#332255;stroke-width:0.529167;stroke-linecap:round;stroke-linejoin:round;stroke-dasharray:none"
       d="m 20.456827,123.95537 h 2.257341 V 83.036327 h -2.257341"
       sodipodi:nodetypes="cccc" />
    <g
       aria-label="1
7
2
9"
       transform="scale(1.0000701,0.99992995)"
       id="text3148"
       style="font-size:8.48427px;line-height:1.25;font-family:'Roboto Slab';-inkscape-font-specification:'Roboto Slab';text-align:center;text-anchor:middle;fill:#332255;stroke-width:0.529167">
      <path
         d="m 131.8298,90.567482 v -0.521981 l 0.93211,-0.115996 v -4.519697 l -0.94868,0.01657 v -0.509553 l 1.76479,-0.38113 v 5.393809 l 0.92797,0.115996 v 0.521981 z"
         id="path15100" />
      <path
         d="m 132.21921,101.17282 0.0663,-0.65041 q 0.116,-0.952819 0.37699,-1.760648 0.26099,-0.807828 0.67526,-1.536945 0.41427,-0.729117 0.99425,-1.441663 h -2.51876 l -0.0622,0.691832 h -0.69597 v -1.333952 h 4.07643 v 0.64212 q -0.54684,0.650405 -0.90311,1.209671 -0.35628,0.555123 -0.57584,1.097818 -0.21542,0.538553 -0.3397,1.126817 -0.12429,0.588265 -0.21128,1.30495 l -0.0663,0.65041 z"
         id="path15102" />
      <path
         d="m 131.13589,111.77816 v -0.55927 l 1.97607,-2.19563 q 0.35214,-0.39356 0.55099,-0.67112 0.19885,-0.28171 0.27756,-0.50956 0.0787,-0.22785 0.0787,-0.47227 0,-0.45155 -0.27342,-0.75811 -0.27342,-0.31071 -0.78297,-0.31071 -0.53027,0 -0.82854,0.31899 -0.29414,0.31899 -0.29414,0.90311 h -0.78297 l -0.008,-0.0249 q -0.0124,-0.52198 0.21956,-0.93625 0.23199,-0.41842 0.67112,-0.6587 0.44327,-0.24442 1.05225,-0.24442 0.57169,0 0.98182,0.21957 0.41427,0.21542 0.63798,0.59241 0.2237,0.37698 0.2237,0.86582 0,0.33142 -0.13256,0.65869 -0.12843,0.32728 -0.38113,0.67112 -0.24857,0.34385 -0.6007,0.72498 l -1.58665,1.72751 0.008,0.0207 h 2.14178 l 0.0663,-0.69183 h 0.69183 v 1.32981 z"
         id="path15104" />
      <path
         d="m 132.80333,122.47049 q -0.31484,0 -0.64626,-0.0621 -0.32727,-0.058 -0.58826,-0.18228 l 0.12428,-0.61726 q 0.2527,0.12014 0.51369,0.17399 0.26514,0.0497 0.59655,0.0497 0.58827,0 0.92797,-0.44741 0.34384,-0.45155 0.35627,-1.44995 l -0.0166,-0.0207 q -0.16571,0.27756 -0.46398,0.4267 -0.29828,0.14914 -0.67112,0.14914 -0.58827,0 -1.01496,-0.24442 -0.4267,-0.24442 -0.6587,-0.70841 -0.22784,-0.46398 -0.22784,-1.12267 0,-0.62969 0.24856,-1.11439 0.2527,-0.4847 0.67526,-0.75812 0.4267,-0.27756 0.94454,-0.27756 0.62969,0 1.08539,0.26514 0.4557,0.26099 0.70012,0.78297 0.24856,0.51784 0.24856,1.28838 v 1.08953 q 0,0.9404 -0.26513,1.55766 -0.26514,0.61727 -0.74569,0.91968 -0.47641,0.30242 -1.12268,0.30242 z m 0.13257,-2.62233 q 0.45155,0 0.74983,-0.19471 0.30242,-0.19471 0.43498,-0.49713 v -0.63797 q 0,-0.79955 -0.30656,-1.20553 -0.30241,-0.40599 -0.88654,-0.40599 -0.30241,0 -0.54683,0.19471 -0.24442,0.19056 -0.38942,0.53027 -0.14085,0.3397 -0.14085,0.78297 0,0.43498 0.12842,0.75811 0.13257,0.31899 0.37699,0.49713 0.24442,0.17814 0.57998,0.17814 z"
         id="path15106" />
    </g>
    <path
       id="path3695"
       style="fill:none;stroke:#332255;stroke-width:0.529167;stroke-linecap:round;stroke-linejoin:round;stroke-dasharray:none"
       d="m 131.03912,123.95537 h -2.25734 V 83.036327 h 2.25734"
       sodipodi:nodetypes="cccc" />
    <path
       id="path3697"
       style="fill:none;stroke:#332255;stroke-width:0.529167;stroke-linecap:round;stroke-linejoin:round;stroke-dasharray:none"
       d="m 135.14545,123.95537 h 2.25733 V 83.036327 h -2.25733"
       sodipodi:nodetypes="cccc" />
    <g
       aria-label="add1"
       transform="scale(1.0000701,0.99992995)"
       id="text3094"
       style="font-size:8.48427px;line-height:1.25;font-family:'Roboto Slab';-inkscape-font-specification:'Roboto Slab';text-align:center;text-anchor:middle;fill:#5749d1;stroke-width:0.529167">
      <path
         d="m 68.356216,106.77791 q -0.700118,0 -1.064676,-0.3397 -0.364559,-0.34385 -0.364559,-0.96526 0,-0.4267 0.231992,-0.74154 0.236134,-0.31899 0.679404,-0.49298 0.44327,-0.17814 1.060534,-0.17814 h 0.799543 v -0.43913 q 0,-0.40598 -0.248562,-0.62969 -0.24442,-0.22371 -0.691833,-0.22371 -0.281704,0 -0.48884,0.0704 -0.207135,0.0663 -0.376986,0.18642 l -0.087,0.62555 h -0.629692 v -1.02739 q 0.302418,-0.24442 0.704261,-0.3687 0.401842,-0.12843 0.890682,-0.12843 0.816114,0 1.280098,0.38942 0.463983,0.38941 0.463983,1.11439 v 2.15835 q 0,0.087 0,0.16985 0.0041,0.0828 0.01243,0.16571 l 0.434985,0.0456 v 0.52198 h -1.172387 q -0.03728,-0.18228 -0.058,-0.32727 -0.02071,-0.145 -0.029,-0.28999 -0.236135,0.30241 -0.592408,0.50541 -0.35213,0.19885 -0.753973,0.19885 z m 0.120139,-0.68355 q 0.405985,0 0.741545,-0.19471 0.335559,-0.1947 0.480554,-0.46812 v -0.81197 h -0.828542 q -0.563408,0 -0.845113,0.26927 -0.281704,0.26928 -0.281704,0.60069 0,0.29414 0.182279,0.45156 0.18228,0.15328 0.550981,0.15328 z"
         id="path15091" />
      <path
         d="m 73.356467,106.77791 q -0.546838,0 -0.940395,-0.26928 -0.389415,-0.27342 -0.59655,-0.75811 -0.207136,-0.4847 -0.207136,-1.13096 v -0.087 q 0,-0.72083 0.207136,-1.26353 0.207135,-0.54269 0.600692,-0.84097 0.393558,-0.30242 0.944538,-0.30242 0.397701,0 0.700118,0.14914 0.306561,0.145 0.521982,0.42256 v -1.82694 l -0.675262,-0.11599 v -0.52613 h 0.675262 0.816114 v 5.82465 l 0.675261,0.116 v 0.52198 h -1.383665 l -0.06628,-0.53441 q -0.219564,0.30656 -0.538552,0.46398 -0.314846,0.15743 -0.73326,0.15743 z m 0.207135,-0.66284 q 0.364559,0 0.613122,-0.1657 0.248562,-0.16571 0.410128,-0.46813 v -2.07964 q -0.157423,-0.28171 -0.410128,-0.44741 -0.252706,-0.16571 -0.604836,-0.16571 -0.389415,0 -0.64212,0.2237 -0.252705,0.21957 -0.376987,0.61312 -0.124281,0.38942 -0.124281,0.90726 v 0.087 q 0,0.67526 0.277561,1.08539 0.277562,0.41012 0.857541,0.41012 z"
         id="path15093" />
      <path
         d="m 78.402288,106.77791 q -0.546838,0 -0.940395,-0.26928 -0.389415,-0.27342 -0.59655,-0.75811 -0.207136,-0.4847 -0.207136,-1.13096 v -0.087 q 0,-0.72083 0.207136,-1.26353 0.207135,-0.54269 0.600693,-0.84097 0.393557,-0.30242 0.944538,-0.30242 0.3977,0 0.700118,0.14914 0.30656,0.145 0.521981,0.42256 v -1.82694 l -0.675262,-0.11599 v -0.52613 h 0.675262 0.816114 v 5.82465 l 0.675262,0.116 v 0.52198 H 79.740383 L 79.6741,106.1565 q -0.219564,0.30656 -0.538552,0.46398 -0.314846,0.15743 -0.73326,0.15743 z m 0.207136,-0.66284 q 0.364558,0 0.613121,-0.1657 0.248562,-0.16571 0.410128,-0.46813 v -2.07964 q -0.157423,-0.28171 -0.410128,-0.44741 -0.252706,-0.16571 -0.604836,-0.16571 -0.389415,0 -0.64212,0.2237 -0.252705,0.21957 -0.376987,0.61312 -0.124281,0.38942 -0.124281,0.90726 v 0.087 q 0,0.67526 0.277562,1.08539 0.277561,0.41012 0.857541,0.41012 z"
         id="path15095" />
      <path
         d="m 81.882164,106.69091 v -0.52198 l 0.93211,-0.116 v -4.51969 l -0.948681,0.0166 v -0.50956 l 1.764795,-0.38113 v 5.39381 l 0.927967,0.116 v 0.52198 z"
         id="path15097" />
    </g>
    <rect
       style="fill:none;fill-opacity:1;stroke:#5749d1;stroke-width:0.529167;stroke-linecap:round;stroke-linejoin:round;stroke-dasharray:none;stroke-opacity:1"
       id="rect3717"
       width="43.510731"
       height="41.317333"
       x="53.992615"
       y="82.837181" />
    <g
       id="path3719">
      <path
         style="color:#000000;fill:#f9accc;stroke-linecap:round;stroke-linejoin:round;-inkscape-stroke:none"
         d="m 26.095703,87.330078 a 0.2645835,0.2645835 0 0 0 -0.263672,0.265625 0.2645835,0.2645835 0 0 0 0.263672,0.263672 H 50.611328 A 0.2645835,0.2645835 0 0 0 50.875,87.595703 0.2645835,0.2645835 0 0 0 50.611328,87.330078 Z"
         id="path15203" />
      <g
         id="g15195">
        <path
           style="color:#000000;fill:#f9accc;stroke-linecap:round;-inkscape-stroke:none"
           d="m 49.154297,85.744141 a 0.2645835,0.2645835 0 0 0 -0.185547,0.07617 0.2645835,0.2645835 0 0 0 0,0.375 l 1.398437,1.400391 -1.398437,1.400391 a 0.2645835,0.2645835 0 0 0 0,0.373047 0.2645835,0.2645835 0 0 0 0.373047,0 l 1.77539,-1.773438 -1.77539,-1.775391 a 0.2645835,0.2645835 0 0 0 -0.1875,-0.07617 z"
           id="path15197" />
      </g>
    </g>
    <g
       id="path4094">
      <path
         style="color:#000000;fill:#f9accc;stroke-linecap:round;stroke-linejoin:round;-inkscape-stroke:none"
         d="m 26.095703,97.986328 a 0.2645835,0.2645835 0 0 0 -0.263672,0.265625 0.2645835,0.2645835 0 0 0 0.263672,0.263672 H 50.611328 A 0.2645835,0.2645835 0 0 0 50.875,98.251953 0.2645835,0.2645835 0 0 0 50.611328,97.986328 Z"
         id="path15191" />
      <g
         id="g15183">
        <path
           style="color:#000000;fill:#f9accc;stroke-linecap:round;-inkscape-stroke:none"
           d="m 49.154297,96.400391 a 0.2645835,0.2645835 0 0 0 -0.185547,0.07617 0.2645835,0.2645835 0 0 0 0,0.375 l 1.398437,1.400391 -1.398437,1.400391 a 0.2645835,0.2645835 0 0 0 0,0.373046 0.2645835,0.2645835 0 0 0 0.373047,0 l 1.77539,-1.773437 -1.77539,-1.775391 a 0.2645835,0.2645835 0 0 0 -0.1875,-0.07617 z"
           id="path15185" />
      </g>
    </g>
    <g
       id="path4112">
      <path
         style="color:#000000;fill:#f9accc;stroke-linecap:round;stroke-linejoin:round;-inkscape-stroke:none"
         d="m 26.095703,108.64258 a 0.2645835,0.2645835 0 0 0 -0.263672,0.26562 0.2645835,0.2645835 0 0 0 0.263672,0.26368 H 50.611328 A 0.2645835,0.2645835 0 0 0 50.875,108.9082 0.2645835,0.2645835 0 0 0 50.611328,108.64258 Z"
         id="path15179" />
      <g
         id="g15171">
        <path
           style="color:#000000;fill:#f9accc;stroke-linecap:round;-inkscape-stroke:none"
           d="m 49.154297,107.05664 a 0.2645835,0.2645835 0 0 0 -0.185547,0.0762 0.2645835,0.2645835 0 0 0 0,0.375 l 1.398437,1.40039 -1.398437,1.40039 a 0.2645835,0.2645835 0 0 0 0,0.37305 0.2645835,0.2645835 0 0 0 0.373047,0 l 1.77539,-1.77344 -1.77539,-1.77539 a 0.2645835,0.2645835 0 0 0 -0.1875,-0.0762 z"
           id="path15173" />
      </g>
    </g>
    <g
       id="path4114">
      <path
         style="color:#000000;fill:#f9accc;stroke-linecap:round;stroke-linejoin:round;-inkscape-stroke:none"
         d="m 26.095703,119.29883 a 0.2645835,0.2645835 0 0 0 -0.263672,0.26562 0.2645835,0.2645835 0 0 0 0.263672,0.26368 h 24.515625 a 0.2645835,0.2645835 0 0 0 0.263672,-0.26368 0.2645835,0.2645835 0 0 0 -0.263672,-0.26562 z"
         id="path15167" />
      <g
         id="g15159">
        <path
           style="color:#000000;fill:#f9accc;stroke-linecap:round;-inkscape-stroke:none"
           d="m 49.154297,117.71289 a 0.2645835,0.2645835 0 0 0 -0.185547,0.0762 0.2645835,0.2645835 0 0 0 0,0.375 l 1.398437,1.40039 -1.398437,1.40039 a 0.2645835,0.2645835 0 0 0 0,0.37305 0.2645835,0.2645835 0 0 0 0.373047,0 l 1.77539,-1.77344 -1.77539,-1.77539 a 0.2645835,0.2645835 0 0 0 -0.1875,-0.0762 z"
           id="path15161" />
      </g>
    </g>
    <g
       id="path4116">
      <path
         style="color:#000000;fill:#f9accc;stroke-linecap:round;stroke-linejoin:round;-inkscape-stroke:none"
         d="m 100.79492,87.330078 a 0.2645835,0.2645835 0 0 0 -0.26562,0.265625 0.2645835,0.2645835 0 0 0 0.26562,0.263672 h 24.51367 a 0.2645835,0.2645835 0 0 0 0.26368,-0.263672 0.2645835,0.2645835 0 0 0 -0.26368,-0.265625 z"
         id="path15119" />
      <g
         id="g15111">
        <path
           style="color:#000000;fill:#f9accc;stroke-linecap:round;-inkscape-stroke:none"
           d="m 123.66602,85.820312 a 0.2645835,0.2645835 0 0 0 0,0.375 l 1.40039,1.400391 -1.40039,1.400391 a 0.2645835,0.2645835 0 0 0 0,0.373047 0.2645835,0.2645835 0 0 0 0.375,0 l 1.77343,-1.773438 -1.77343,-1.775391 a 0.2645835,0.2645835 0 0 0 -0.375,0 z"
           id="path15113" />
      </g>
    </g>
    <g
       id="path4118">
      <path
         style="color:#000000;fill:#f9accc;stroke-linecap:round;stroke-linejoin:round;-inkscape-stroke:none"
         d="m 100.79492,97.986328 a 0.2645835,0.2645835 0 0 0 -0.26562,0.265625 0.2645835,0.2645835 0 0 0 0.26562,0.263672 h 24.51367 a 0.2645835,0.2645835 0 0 0 0.26368,-0.263672 0.2645835,0.2645835 0 0 0 -0.26368,-0.265625 z"
         id="path15131" />
      <g
         id="g15123">
        <path
           style="color:#000000;fill:#f9accc;stroke-linecap:round;-inkscape-stroke:none"
           d="m 123.66602,96.476562 a 0.2645835,0.2645835 0 0 0 0,0.375 l 1.40039,1.400391 -1.40039,1.400391 a 0.2645835,0.2645835 0 0 0 0,0.373046 0.2645835,0.2645835 0 0 0 0.375,0 l 1.77343,-1.773437 -1.77343,-1.775391 a 0.2645835,0.2645835 0 0 0 -0.375,0 z"
           id="path15125" />
      </g>
    </g>
    <g
       id="path4120">
      <path
         style="color:#000000;fill:#f9accc;stroke-linecap:round;stroke-linejoin:round;-inkscape-stroke:none"
         d="m 100.79492,108.64258 a 0.2645835,0.2645835 0 0 0 -0.26562,0.26562 0.2645835,0.2645835 0 0 0 0.26562,0.26368 h 24.51367 a 0.2645835,0.2645835 0 0 0 0.26368,-0.26368 0.2645835,0.2645835 0 0 0 -0.26368,-0.26562 z"
         id="path15143" />
      <g
         id="g15135">
        <path
           style="color:#000000;fill:#f9accc;stroke-linecap:round;-inkscape-stroke:none"
           d="m 123.85352,107.05664 a 0.2645835,0.2645835 0 0 0 -0.1875,0.0762 0.2645835,0.2645835 0 0 0 0,0.375 l 1.40039,1.40039 -1.40039,1.40039 a 0.2645835,0.2645835 0 0 0 0,0.37305 0.2645835,0.2645835 0 0 0 0.375,0 l 1.77343,-1.77344 -1.77343,-1.77539 a 0.2645835,0.2645835 0 0 0 -0.1875,-0.0762 z"
           id="path15137" />
      </g>
    </g>
    <g
       id="path4122">
      <path
         style="color:#000000;fill:#f9accc;stroke-linecap:round;stroke-linejoin:round;-inkscape-stroke:none"
         d="m 100.79492,119.29883 a 0.2645835,0.2645835 0 0 0 -0.26562,0.26562 0.2645835,0.2645835 0 0 0 0.26562,0.26368 h 24.51367 a 0.2645835,0.2645835 0 0 0 0.26368,-0.26368 0.2645835,0.2645835 0 0 0 -0.26368,-0.26562 z"
         id="path15155" />
      <g
         id="g15147">
        <path
           style="color:#000000;fill:#f9accc;stroke-linecap:round;-inkscape-stroke:none"
           d="m 123.85352,117.71289 a 0.2645835,0.2645835 0 0 0 -0.1875,0.0762 0.2645835,0.2645835 0 0 0 0,0.375 l 1.40039,1.40039 -1.40039,1.40039 a 0.2645835,0.2645835 0 0 0 0,0.37305 0.2645835,0.2645835 0 0 0 0.375,0 l 1.77343,-1.77344 -1.77343,-1.77539 a 0.2645835,0.2645835 0 0 0 -0.1875,-0.0762 z"
           id="path15149" />
      </g>
    </g>
    <text
       xml:space="preserve"
       style="font-size:5.64444px;line-height:1.25;font-family:'Roboto Slab';-inkscape-font-specification:'Roboto Slab';stroke-width:0.264583"
       x="153.22903"
       y="78.652138"
       id="text7974"><tspan
         sodipodi:role="line"
         id="tspan7972"
         style="stroke-width:0.264583"
         x="153.22903"
         y="78.652138"></tspan></text>
  </g>
</svg>
