<?xml version="1.0" encoding="UTF-8" standalone="no"?>
<!-- Created with Inkscape (http://www.inkscape.org/) -->

<svg
   width="233.7077mm"
   height="69.629044mm"
   viewBox="0 0 233.7077 69.629044"
   version="1.1"
   id="svg15777"
   xml:space="preserve"
   inkscape:version="1.2.2 (732a01da63, 2022-12-09)"
   sodipodi:docname="fig-curry-1.svg"
   xmlns:inkscape="http://www.inkscape.org/namespaces/inkscape"
   xmlns:sodipodi="http://sodipodi.sourceforge.net/DTD/sodipodi-0.dtd"
   xmlns="http://www.w3.org/2000/svg"
   xmlns:svg="http://www.w3.org/2000/svg"><sodipodi:namedview
     id="namedview15779"
     pagecolor="#ffffff"
     bordercolor="#666666"
     borderopacity="1.0"
     inkscape:showpageshadow="2"
     inkscape:pageopacity="0.0"
     inkscape:pagecheckerboard="0"
     inkscape:deskcolor="#d1d1d1"
     inkscape:document-units="mm"
     showgrid="false"
     inkscape:zoom="0.93144849"
     inkscape:cx="463.25696"
     inkscape:cy="99.307692"
     inkscape:current-layer="layer1" /><defs
     id="defs15774" /><g
     inkscape:label="Layer 1"
     inkscape:groupmode="layer"
     id="layer1"
     transform="translate(8.7316513,-45.563384)"><text
       xml:space="preserve"
       style="font-size:5.64444px;line-height:1.25;font-family:'Roboto Mono';-inkscape-font-specification:'Roboto Mono';text-align:center;text-anchor:middle;stroke-width:0.264583"
       x="23.239523"
       y="113.89707"
       id="text21393"><tspan
         sodipodi:role="line"
         id="tspan21391"
         style="text-align:center;text-anchor:middle;stroke-width:0.264583"
         x="23.239525"
         y="113.89707">(curry myfunc)</tspan></text><g
       id="g25825"
       transform="translate(-58.208336)"><path
         id="path25777"
         style="fill:none;stroke:#332255;stroke-width:0.932648;stroke-linecap:round;stroke-linejoin:round;stroke-opacity:1"
         class="UnoptimicedTransforms"
         d="M 84.160238,42.473376 A 29.574152,11.404926 0 0 0 54.586332,53.878365 29.574152,11.404926 0 0 0 73.163493,64.461698 29.574152,11.404926 0 0 1 84.160238,63.640043 29.574152,11.404926 0 0 1 95.169385,64.460148 29.574152,11.404926 0 0 0 113.73466,53.878365 29.574152,11.404926 0 0 0 84.160238,42.473376 Z"
         transform="matrix(0.56740005,0,0,0.56735893,35.19868,56.68717)" /><path
         id="path25779"
         style="fill:#ffffff;stroke:#332255;stroke-width:0.932648;stroke-linecap:round;stroke-linejoin:round;stroke-opacity:1"
         class="UnoptimicedTransforms"
         d="M 54.586332,53.878365 V 75.045032 A 29.574152,11.404926 0 0 0 84.160238,86.45002 29.574152,11.404926 0 0 0 113.73466,75.045032 V 53.878365 A 29.574152,11.404926 0 0 1 84.160238,65.283354 29.574152,11.404926 0 0 1 54.586332,53.878365 Z"
         transform="matrix(0.56740005,0,0,0.56735893,35.19854,56.687091)" /><path
         id="path25781"
         style="fill:#ffffff;stroke:#332255;stroke-width:0.529165;stroke-linecap:round;stroke-linejoin:round;stroke-opacity:1"
         d="m 66.610061,88.711153 c 0.418505,1.979138 -10.542025,4.200802 -13.649316,5.907503 -3.168631,1.74039 -5.801651,4.284224 1.24967,2.677713 7.051321,-1.606517 11.953956,-6.971638 15.211844,-6.213012 l -0.01525,-0.01316 a 16.780376,6.4706866 0 0 1 -2.796952,-2.359018 z" /><path
         id="path25783"
         style="fill:#ffffff;stroke:#332255;stroke-width:0.529165;stroke-linecap:round;stroke-linejoin:round;stroke-opacity:1"
         d="m 68.792146,91.010355 c -1.898764,-0.01741 -4.302324,1.618369 -7.290425,3.281394 1.63094,-0.876229 4.161689,-2.064914 5.249376,-1.145792 1.257782,1.062856 1.192034,-1.764413 2.671162,-2.0626 l -0.230171,-0.04193 c -0.130895,-0.01884 -0.263911,-0.02984 -0.399942,-0.03109 z m -7.956017,3.646417 c -0.0081,0.0046 -0.01595,0.0089 -0.02404,0.01321 l -0.0012,0.0011 c 0.0079,-0.0046 0.01723,-0.0097 0.02521,-0.01407 z" /><path
         id="path25785"
         style="fill:#ffffff;fill-opacity:1;stroke:#332255;stroke-width:0.529;stroke-linecap:round;stroke-linejoin:round;stroke-dasharray:none;stroke-opacity:1"
         d="m 81.981998,85.118392 c -1.453077,0 -4.046012,1.509946 -5.72702,2.336144 -1.681005,0.826199 -5.555939,0.227943 -6.467673,0.655282 -0.768741,0.360324 -1.075043,1.104696 -2.261251,1.688194 a 16.780376,6.4706866 0 0 0 15.425012,3.928171 16.780376,6.4706866 0 0 0 15.836971,-4.336293 c -0.637553,-0.514176 -1.971647,-0.846577 -2.702827,-1.023823 -0.940227,-0.227919 -2.592553,-1.053981 -4.444514,-1.908673 -1.851954,-0.854678 -4.473297,0.02825 -5.442013,-0.02873 -0.968717,-0.05698 -2.763613,-1.31027 -4.216685,-1.31027 z" /><path
         style="fill:#ffffff;fill-opacity:1;stroke:#332255;stroke-width:0.529165;stroke-linecap:round;stroke-linejoin:round;stroke-opacity:1"
         d="m 93.997978,86.693196 c -0.470114,0.142448 -1.88045,2.307659 -1.595535,2.478598 0.28492,0.170934 2.079895,0.341874 2.421794,-0.427346 0.341898,-0.769219 -0.356146,-2.193701 -0.826259,-2.051252 z"
         id="path25787"
         sodipodi:nodetypes="zssz" /><path
         style="fill:#ffffff;fill-opacity:1;stroke:#332255;stroke-width:0.529165;stroke-linecap:round;stroke-linejoin:round;stroke-opacity:1"
         d="m 76.608512,86.375991 c -0.332419,0.211525 -1.047627,2.276409 -0.443228,2.377132 0.604401,0.100726 2.034814,0.04028 2.276573,-0.221593 0.241761,-0.261888 1.047627,-1.81307 0.705134,-2.034667 -0.342493,-0.221598 -1.027479,-0.543921 -1.228948,-0.564066 -0.201465,-0.02015 -0.977112,0.231668 -1.309531,0.443194 z"
         id="path25789"
         sodipodi:nodetypes="zssssz" /><path
         style="fill:#ffffff;fill-opacity:1;stroke:#332255;stroke-width:0.529165;stroke-linecap:round;stroke-linejoin:round;stroke-opacity:1"
         d="m 76.069854,88.679471 c -0.655309,-0.185182 -1.139668,0.08547 -1.139668,0.08547"
         id="path25791" /><path
         style="fill:#ffffff;fill-opacity:1;stroke:#332255;stroke-width:0.529165;stroke-linecap:round;stroke-linejoin:round;stroke-opacity:1"
         d="m 79.146955,87.212257 c 0.170949,-0.441589 0.726538,-0.584038 0.726538,-0.584038"
         id="path25793" /><path
         style="fill:#ffffff;fill-opacity:1;stroke:#332255;stroke-width:0.529165;stroke-linecap:round;stroke-linejoin:round;stroke-opacity:1"
         d="M 92.438325,89.192284 C 91.911226,88.964368 91.526589,89.021347 91.526589,89.021347"
         id="path25795" /><path
         style="fill:#ffffff;fill-opacity:1;stroke:#332255;stroke-width:0.529165;stroke-linecap:round;stroke-linejoin:round;stroke-opacity:1"
         d="m 94.774641,88.82192 c 0.427377,-0.370364 0.569834,-0.327631 0.569834,-0.327631"
         id="path25797" /><path
         style="fill:#ffffff;fill-opacity:1;stroke:#332255;stroke-width:0.529165;stroke-linecap:round;stroke-linejoin:round;stroke-opacity:1"
         d="m 83.993749,90.868368 c -0.503667,-0.302175 0.564106,-1.349724 1.047627,-1.71234 0.483519,-0.362613 1.974371,-0.241741 2.175839,0.08058 0.201465,0.322323 1.631879,0.987114 0.946893,1.470601 -0.684988,0.483486 -1.511,0.483486 -1.934079,0.483486 -0.42308,0 -2.23628,-0.322328 -2.23628,-0.322327 z"
         id="path25799" /><path
         style="fill:#ffffff;fill-opacity:1;stroke:#332255;stroke-width:0.529165;stroke-linecap:round;stroke-linejoin:round;stroke-opacity:1"
         d="m 84.013895,90.868368 c -0.715205,-0.110795 -1.067772,0.09066 -1.067772,0.09066"
         id="path25801" /><path
         style="fill:#ffffff;fill-opacity:1;stroke:#332255;stroke-width:0.529165;stroke-linecap:round;stroke-linejoin:round;stroke-opacity:1"
         d="m 88.254768,90.60648 c 0.453299,-0.402903 0.745425,-0.372686 0.745425,-0.372686"
         id="path25803" /><ellipse
         style="fill:#ffffff;fill-opacity:1;stroke:#332255;stroke-width:0.529165;stroke-linecap:round;stroke-linejoin:round;stroke-opacity:1"
         id="ellipse25805"
         cx="77.758362"
         cy="91.643959"
         rx="0.61447304"
         ry="0.61442846" /><ellipse
         style="fill:#ffffff;fill-opacity:1;stroke:#332255;stroke-width:0.529165;stroke-linecap:round;stroke-linejoin:round;stroke-opacity:1"
         id="ellipse25807"
         cx="79.279434"
         cy="89.96183"
         rx="0.40293315"
         ry="0.40290397" /><ellipse
         style="fill:#ffffff;fill-opacity:1;stroke:#332255;stroke-width:0.529165;stroke-linecap:round;stroke-linejoin:round;stroke-opacity:1"
         id="ellipse25809"
         cx="77.536743"
         cy="88.078262"
         rx="0.29212654"
         ry="0.29210538" /><ellipse
         style="fill:#ffffff;fill-opacity:1;stroke:#332255;stroke-width:0.529165;stroke-linecap:round;stroke-linejoin:round;stroke-opacity:1"
         id="ellipse25811"
         cx="78.715324"
         cy="86.154396"
         rx="0.5439598"
         ry="0.54392034" /><ellipse
         style="fill:#ffffff;fill-opacity:1;stroke:#332255;stroke-width:0.529165;stroke-linecap:round;stroke-linejoin:round;stroke-opacity:1"
         id="ellipse25813"
         cx="78.100853"
         cy="82.860657"
         rx="0.29212654"
         ry="0.29210538" /><ellipse
         style="fill:#ffffff;fill-opacity:1;stroke:#332255;stroke-width:0.529165;stroke-linecap:round;stroke-linejoin:round;stroke-opacity:1"
         id="ellipse25815"
         cx="88.919601"
         cy="88.461021"
         rx="0.51373982"
         ry="0.51370257" /><ellipse
         style="fill:#ffffff;fill-opacity:1;stroke:#332255;stroke-width:0.529165;stroke-linecap:round;stroke-linejoin:round;stroke-opacity:1"
         id="ellipse25817"
         cx="90.783173"
         cy="87.624992"
         rx="0.2820532"
         ry="0.28203279" /><ellipse
         style="fill:#ffffff;fill-opacity:1;stroke:#332255;stroke-width:0.529165;stroke-linecap:round;stroke-linejoin:round;stroke-opacity:1"
         id="ellipse25819"
         cx="88.83902"
         cy="86.325623"
         rx="0.43315315"
         ry="0.43312174" /><ellipse
         style="fill:#ffffff;fill-opacity:1;stroke:#332255;stroke-width:0.529165;stroke-linecap:round;stroke-linejoin:round;stroke-opacity:1"
         id="ellipse25821"
         cx="90.329872"
         cy="84.552856"
         rx="0.57417977"
         ry="0.57413816" /><ellipse
         style="fill:#ffffff;fill-opacity:1;stroke:#332255;stroke-width:0.529165;stroke-linecap:round;stroke-linejoin:round;stroke-opacity:1"
         id="ellipse25823"
         cx="88.536819"
         cy="82.780067"
         rx="0.25183323"
         ry="0.25181496" /></g><g
       id="g25881"
       transform="translate(21.166665)"><path
         id="path25833"
         style="fill:none;stroke:#332255;stroke-width:0.932648;stroke-linecap:round;stroke-linejoin:round;stroke-opacity:1"
         class="UnoptimicedTransforms"
         d="M 84.160238,42.473376 A 29.574152,11.404926 0 0 0 54.586332,53.878365 29.574152,11.404926 0 0 0 73.163493,64.461698 29.574152,11.404926 0 0 1 84.160238,63.640043 29.574152,11.404926 0 0 1 95.169385,64.460148 29.574152,11.404926 0 0 0 113.73466,53.878365 29.574152,11.404926 0 0 0 84.160238,42.473376 Z"
         transform="matrix(0.56740005,0,0,0.56735893,35.19868,56.68717)" /><path
         id="path25835"
         style="fill:#ffffff;stroke:#332255;stroke-width:0.932648;stroke-linecap:round;stroke-linejoin:round;stroke-opacity:1"
         class="UnoptimicedTransforms"
         d="M 54.586332,53.878365 V 75.045032 A 29.574152,11.404926 0 0 0 84.160238,86.45002 29.574152,11.404926 0 0 0 113.73466,75.045032 V 53.878365 A 29.574152,11.404926 0 0 1 84.160238,65.283354 29.574152,11.404926 0 0 1 54.586332,53.878365 Z"
         transform="matrix(0.56740005,0,0,0.56735893,35.19854,56.687091)" /><path
         id="path25837"
         style="fill:#ffffff;stroke:#332255;stroke-width:0.529165;stroke-linecap:round;stroke-linejoin:round;stroke-opacity:1"
         d="m 66.610061,88.711153 c 0.418505,1.979138 -10.542025,4.200802 -13.649316,5.907503 -3.168631,1.74039 -5.801651,4.284224 1.24967,2.677713 7.051321,-1.606517 11.953956,-6.971638 15.211844,-6.213012 l -0.01525,-0.01316 a 16.780376,6.4706866 0 0 1 -2.796952,-2.359018 z" /><path
         id="path25839"
         style="fill:#ffffff;stroke:#332255;stroke-width:0.529165;stroke-linecap:round;stroke-linejoin:round;stroke-opacity:1"
         d="m 68.792146,91.010355 c -1.898764,-0.01741 -4.302324,1.618369 -7.290425,3.281394 1.63094,-0.876229 4.161689,-2.064914 5.249376,-1.145792 1.257782,1.062856 1.192034,-1.764413 2.671162,-2.0626 l -0.230171,-0.04193 c -0.130895,-0.01884 -0.263911,-0.02984 -0.399942,-0.03109 z m -7.956017,3.646417 c -0.0081,0.0046 -0.01595,0.0089 -0.02404,0.01321 l -0.0012,0.0011 c 0.0079,-0.0046 0.01723,-0.0097 0.02521,-0.01407 z" /><path
         id="path25841"
         style="fill:#ffffff;fill-opacity:1;stroke:#332255;stroke-width:0.529;stroke-linecap:round;stroke-linejoin:round;stroke-dasharray:none;stroke-opacity:1"
         d="m 81.981998,85.118392 c -1.453077,0 -4.046012,1.509946 -5.72702,2.336144 -1.681005,0.826199 -5.555939,0.227943 -6.467673,0.655282 -0.768741,0.360324 -1.075043,1.104696 -2.261251,1.688194 a 16.780376,6.4706866 0 0 0 15.425012,3.928171 16.780376,6.4706866 0 0 0 15.836971,-4.336293 c -0.637553,-0.514176 -1.971647,-0.846577 -2.702827,-1.023823 -0.940227,-0.227919 -2.592553,-1.053981 -4.444514,-1.908673 -1.851954,-0.854678 -4.473297,0.02825 -5.442013,-0.02873 -0.968717,-0.05698 -2.763613,-1.31027 -4.216685,-1.31027 z" /><path
         style="fill:#ffffff;fill-opacity:1;stroke:#332255;stroke-width:0.529165;stroke-linecap:round;stroke-linejoin:round;stroke-opacity:1"
         d="m 93.997978,86.693196 c -0.470114,0.142448 -1.88045,2.307659 -1.595535,2.478598 0.28492,0.170934 2.079895,0.341874 2.421794,-0.427346 0.341898,-0.769219 -0.356146,-2.193701 -0.826259,-2.051252 z"
         id="path25843"
         sodipodi:nodetypes="zssz" /><path
         style="fill:#ffffff;fill-opacity:1;stroke:#332255;stroke-width:0.529165;stroke-linecap:round;stroke-linejoin:round;stroke-opacity:1"
         d="m 76.608512,86.375991 c -0.332419,0.211525 -1.047627,2.276409 -0.443228,2.377132 0.604401,0.100726 2.034814,0.04028 2.276573,-0.221593 0.241761,-0.261888 1.047627,-1.81307 0.705134,-2.034667 -0.342493,-0.221598 -1.027479,-0.543921 -1.228948,-0.564066 -0.201465,-0.02015 -0.977112,0.231668 -1.309531,0.443194 z"
         id="path25845"
         sodipodi:nodetypes="zssssz" /><path
         style="fill:#ffffff;fill-opacity:1;stroke:#332255;stroke-width:0.529165;stroke-linecap:round;stroke-linejoin:round;stroke-opacity:1"
         d="m 76.069854,88.679471 c -0.655309,-0.185182 -1.139668,0.08547 -1.139668,0.08547"
         id="path25847" /><path
         style="fill:#ffffff;fill-opacity:1;stroke:#332255;stroke-width:0.529165;stroke-linecap:round;stroke-linejoin:round;stroke-opacity:1"
         d="m 79.146955,87.212257 c 0.170949,-0.441589 0.726538,-0.584038 0.726538,-0.584038"
         id="path25849" /><path
         style="fill:#ffffff;fill-opacity:1;stroke:#332255;stroke-width:0.529165;stroke-linecap:round;stroke-linejoin:round;stroke-opacity:1"
         d="M 92.438325,89.192284 C 91.911226,88.964368 91.526589,89.021347 91.526589,89.021347"
         id="path25851" /><path
         style="fill:#ffffff;fill-opacity:1;stroke:#332255;stroke-width:0.529165;stroke-linecap:round;stroke-linejoin:round;stroke-opacity:1"
         d="m 94.774641,88.82192 c 0.427377,-0.370364 0.569834,-0.327631 0.569834,-0.327631"
         id="path25853" /><path
         style="fill:#ffffff;fill-opacity:1;stroke:#332255;stroke-width:0.529165;stroke-linecap:round;stroke-linejoin:round;stroke-opacity:1"
         d="m 83.993749,90.868368 c -0.503667,-0.302175 0.564106,-1.349724 1.047627,-1.71234 0.483519,-0.362613 1.974371,-0.241741 2.175839,0.08058 0.201465,0.322323 1.631879,0.987114 0.946893,1.470601 -0.684988,0.483486 -1.511,0.483486 -1.934079,0.483486 -0.42308,0 -2.23628,-0.322328 -2.23628,-0.322327 z"
         id="path25855" /><path
         style="fill:#ffffff;fill-opacity:1;stroke:#332255;stroke-width:0.529165;stroke-linecap:round;stroke-linejoin:round;stroke-opacity:1"
         d="m 84.013895,90.868368 c -0.715205,-0.110795 -1.067772,0.09066 -1.067772,0.09066"
         id="path25857" /><path
         style="fill:#ffffff;fill-opacity:1;stroke:#332255;stroke-width:0.529165;stroke-linecap:round;stroke-linejoin:round;stroke-opacity:1"
         d="m 88.254768,90.60648 c 0.453299,-0.402903 0.745425,-0.372686 0.745425,-0.372686"
         id="path25859" /><ellipse
         style="fill:#ffffff;fill-opacity:1;stroke:#332255;stroke-width:0.529165;stroke-linecap:round;stroke-linejoin:round;stroke-opacity:1"
         id="ellipse25861"
         cx="77.758362"
         cy="91.643959"
         rx="0.61447304"
         ry="0.61442846" /><ellipse
         style="fill:#ffffff;fill-opacity:1;stroke:#332255;stroke-width:0.529165;stroke-linecap:round;stroke-linejoin:round;stroke-opacity:1"
         id="ellipse25863"
         cx="79.279434"
         cy="89.96183"
         rx="0.40293315"
         ry="0.40290397" /><ellipse
         style="fill:#ffffff;fill-opacity:1;stroke:#332255;stroke-width:0.529165;stroke-linecap:round;stroke-linejoin:round;stroke-opacity:1"
         id="ellipse25865"
         cx="77.536743"
         cy="88.078262"
         rx="0.29212654"
         ry="0.29210538" /><ellipse
         style="fill:#ffffff;fill-opacity:1;stroke:#332255;stroke-width:0.529165;stroke-linecap:round;stroke-linejoin:round;stroke-opacity:1"
         id="ellipse25867"
         cx="78.715324"
         cy="86.154396"
         rx="0.5439598"
         ry="0.54392034" /><ellipse
         style="fill:#ffffff;fill-opacity:1;stroke:#332255;stroke-width:0.529165;stroke-linecap:round;stroke-linejoin:round;stroke-opacity:1"
         id="ellipse25869"
         cx="78.100853"
         cy="82.860657"
         rx="0.29212654"
         ry="0.29210538" /><ellipse
         style="fill:#ffffff;fill-opacity:1;stroke:#332255;stroke-width:0.529165;stroke-linecap:round;stroke-linejoin:round;stroke-opacity:1"
         id="ellipse25871"
         cx="88.919601"
         cy="88.461021"
         rx="0.51373982"
         ry="0.51370257" /><ellipse
         style="fill:#ffffff;fill-opacity:1;stroke:#332255;stroke-width:0.529165;stroke-linecap:round;stroke-linejoin:round;stroke-opacity:1"
         id="ellipse25873"
         cx="90.783173"
         cy="87.624992"
         rx="0.2820532"
         ry="0.28203279" /><ellipse
         style="fill:#ffffff;fill-opacity:1;stroke:#332255;stroke-width:0.529165;stroke-linecap:round;stroke-linejoin:round;stroke-opacity:1"
         id="ellipse25875"
         cx="88.83902"
         cy="86.325623"
         rx="0.43315315"
         ry="0.43312174" /><ellipse
         style="fill:#ffffff;fill-opacity:1;stroke:#332255;stroke-width:0.529165;stroke-linecap:round;stroke-linejoin:round;stroke-opacity:1"
         id="ellipse25877"
         cx="90.329872"
         cy="84.552856"
         rx="0.57417977"
         ry="0.57413816" /><ellipse
         style="fill:#ffffff;fill-opacity:1;stroke:#332255;stroke-width:0.529165;stroke-linecap:round;stroke-linejoin:round;stroke-opacity:1"
         id="ellipse25879"
         cx="88.536819"
         cy="82.780067"
         rx="0.25183323"
         ry="0.25181496" /></g><path
       id="path25887"
       style="fill:#332255;stroke-width:0.999997"
       d="m 70.916308,45.563768 c 3.376577,1.520693 7.043047,2.262191 10.588734,3.281849 4.283337,0.790646 8.646704,0.253939 12.966474,0.290842 1.505267,0.211977 4.026797,-0.04259 4.219257,2.02727 0.0702,2.704895 0.58133,5.358331 1.04567,8.014168 0.305707,1.828585 -0.37808,3.612783 -0.32703,5.443957 -0.005,1.32899 -0.32165,2.634735 -0.32776,3.945198 -0.48247,1.275503 -2.44969,1.292766 -3.45613,0.861444 -1.029247,-1.148797 -1.771337,-2.527158 -2.782647,-3.700592 -1.78558,-2.276855 -4.326017,-3.881926 -7.113667,-4.624742 -1.43445,-0.449504 -2.866147,-1.036781 -3.916897,-2.150631 -1.82827,-1.401599 -4.072767,-2.079349 -6.221267,-2.82277 -1.60812,-0.516947 -3.327757,-0.794692 -4.900817,-1.335538 0.78574,-1.406419 2.4203,0.375697 3.604987,0.262136 2.28507,0.628124 4.4807,1.543574 6.615317,2.564464 1.49868,1.269618 3.09394,2.466708 5.013277,2.99586 1.7884,0.507791 3.46319,1.311027 4.962747,2.375254 0.9137,1.099793 2.14485,2.484814 3.44337,1.185873 0.14188,0.376195 -1.66731,1.071987 -0.72621,1.179794 0.36851,-0.875516 2.459857,-0.763834 0.82422,-0.114199 -1.72881,0.425511 0.520317,3.159494 1.380767,1.520678 1.08767,-0.289207 1.61934,2.795286 1.48594,0.789195 -0.37313,-2.380324 -2.07377,-4.196946 -3.598577,-5.937536 -1.02542,-1.210864 -1.85896,-2.707715 -1.69208,-4.350439 -0.1584,-0.525835 0.45,-2.871674 0.47263,-1.203021 0.0661,1.180769 1.43531,-1.159307 2.05896,-1.375626 0.404477,-0.510458 1.680177,-1.174702 0.716967,-0.124245 -0.635927,0.57101 -0.858567,1.029107 0.13561,0.510598 1.26026,0.141149 -1.588537,0.897527 -1.561537,1.468817 0.974817,1.288134 2.722247,-0.03259 3.461737,-0.998417 0.74836,0.29716 -1.38202,1.387058 -1.40728,2.162268 -0.71235,1.47892 0.90721,2.615393 0.74414,4.111884 0.0948,1.653903 0.0855,3.395147 0.97449,4.857487 0.071,1.106632 0.51431,3.296372 0.94974,1.087591 0.36846,-1.731869 0.43215,-3.492296 0.52692,-5.253769 0.70137,-2.611304 -0.24925,-5.282416 -0.57379,-7.845605 -0.51793,-1.554115 0.54487,-4.022271 -1.38923,-4.749475 -1.3441,-0.379129 -3.527377,0.334184 -4.166387,-0.312216 -4.809477,0.08849 -9.785624,0.543341 -14.404371,-1.119285 -2.60698,-0.75931 -5.337997,-1.272584 -7.743787,-2.577972 -0.17284,-0.09501 -0.066,-0.352209 0.11751,-0.340549 z m -0.10634,4.610078 c 2.986737,1.154097 5.914837,2.535679 8.517144,4.420697 0.72978,0.254182 1.0294,1.803745 0.72572,2.270875 -0.33942,-1.486531 -1.21409,-2.738687 -2.738737,-3.276736 -2.06599,-1.271724 -4.384037,-2.043463 -6.581417,-3.048114 -0.15023,-0.08752 -0.10201,-0.352749 0.0773,-0.366722 z m 26.074835,4.295358 c 0.65162,0.817003 -2.14083,2.664178 -0.92676,1.109101 0.29938,-0.35984 0.51385,-0.877897 0.92676,-1.109101 z m -5.258817,1.2936 c 0.78031,0.478517 0.10182,1.682089 -0.14305,0.388378 -0.099,-0.15007 -0.0231,-0.352034 0.14305,-0.388378 z m -6.784577,1.085235 c 0.94065,0.916949 -1.859877,2.237906 -0.39285,0.774863 0.11379,-0.241601 0.0851,-0.679892 0.39285,-0.774863 z m 9.117727,0.640288 c -1.22315,0.538709 1.593137,2.672727 0.0763,1.987988 -2.1432,-0.74847 -0.31543,2.469545 1.017587,1.897169 1.93469,-0.204984 -0.0666,-2.214529 -0.0598,-3.31005 -0.18249,-0.394089 -0.609797,-0.604252 -1.034127,-0.575107 z m -10.085714,0.818267 c 0.304307,0.852106 -1.47211,0.178213 -0.21502,0.0087 l 0.21501,-0.0087 z m 12.292981,3.442364 c -0.7484,0.01673 -2.306077,0.02194 -1.00968,0.854295 0.45026,0.540991 1.51847,2.176405 1.06413,0.495176 -0.0225,-0.449641 -0.0307,-0.899927 -0.0545,-1.349471 z m -0.22789,5.558572 c -2.046027,0.102938 0.87819,3.228389 0.94629,1.046167 -0.0688,-0.482026 -0.40577,-1.033906 -0.94629,-1.046167 z m 1.70809,3.848242 c 1.13628,0.785725 -1.21761,0.51044 1e-5,2.6e-5 z m -0.69669,0.863848 c 1.58869,1.21162 -1.67418,0.92122 0,0 z m 1.0548,0.355956 c 1.58565,0.440418 -0.80047,1.510816 -0.49703,0.36245 0.14431,-0.132954 0.28924,-0.330952 0.49703,-0.36245 z m -0.69235,1.493283 c 1.4921,0.57721 -0.98006,1.56889 -0.28932,0.257518 l 0.1808,-0.237984 0.10853,-0.01954 z m -1.04829,0.701062 c 1.429,1.212349 -1.55207,0.888987 0,0 z m 2.4764,0.104183 c 1.646317,0.604235 -0.97615,1.688736 -0.59035,0.408054 0.16724,-0.127738 0.3521,-0.417688 0.59035,-0.408054 z m -1.55182,1.278405 c 2.16285,1.089969 -1.92321,1.095963 0,0 z" /><text
       xml:space="preserve"
       style="font-size:5.64444px;line-height:1.25;font-family:'Roboto Mono';-inkscape-font-specification:'Roboto Mono';text-align:center;text-anchor:middle;stroke-width:0.264583"
       x="110.91158"
       y="67.334061"
       id="text25941"><tspan
         sodipodi:role="line"
         id="tspan25939"
         style="text-align:center;text-anchor:middle;stroke-width:0.264583"
         x="110.91158"
         y="67.334061">'a</tspan></text><g
       id="g25991"
       transform="translate(100.54167)"><path
         id="path25943"
         style="fill:none;stroke:#332255;stroke-width:0.932648;stroke-linecap:round;stroke-linejoin:round;stroke-opacity:1"
         class="UnoptimicedTransforms"
         d="M 84.160238,42.473376 A 29.574152,11.404926 0 0 0 54.586332,53.878365 29.574152,11.404926 0 0 0 73.163493,64.461698 29.574152,11.404926 0 0 1 84.160238,63.640043 29.574152,11.404926 0 0 1 95.169385,64.460148 29.574152,11.404926 0 0 0 113.73466,53.878365 29.574152,11.404926 0 0 0 84.160238,42.473376 Z"
         transform="matrix(0.56740005,0,0,0.56735893,35.19868,56.68717)" /><path
         id="path25945"
         style="fill:#ffffff;stroke:#332255;stroke-width:0.932648;stroke-linecap:round;stroke-linejoin:round;stroke-opacity:1"
         class="UnoptimicedTransforms"
         d="M 54.586332,53.878365 V 75.045032 A 29.574152,11.404926 0 0 0 84.160238,86.45002 29.574152,11.404926 0 0 0 113.73466,75.045032 V 53.878365 A 29.574152,11.404926 0 0 1 84.160238,65.283354 29.574152,11.404926 0 0 1 54.586332,53.878365 Z"
         transform="matrix(0.56740005,0,0,0.56735893,35.19854,56.687091)" /><path
         id="path25947"
         style="fill:#ffffff;stroke:#332255;stroke-width:0.529165;stroke-linecap:round;stroke-linejoin:round;stroke-opacity:1"
         d="m 66.610061,88.711153 c 0.418505,1.979138 -10.542025,4.200802 -13.649316,5.907503 -3.168631,1.74039 -5.801651,4.284224 1.24967,2.677713 7.051321,-1.606517 11.953956,-6.971638 15.211844,-6.213012 l -0.01525,-0.01316 a 16.780376,6.4706866 0 0 1 -2.796952,-2.359018 z" /><path
         id="path25949"
         style="fill:#ffffff;stroke:#332255;stroke-width:0.529165;stroke-linecap:round;stroke-linejoin:round;stroke-opacity:1"
         d="m 68.792146,91.010355 c -1.898764,-0.01741 -4.302324,1.618369 -7.290425,3.281394 1.63094,-0.876229 4.161689,-2.064914 5.249376,-1.145792 1.257782,1.062856 1.192034,-1.764413 2.671162,-2.0626 l -0.230171,-0.04193 c -0.130895,-0.01884 -0.263911,-0.02984 -0.399942,-0.03109 z m -7.956017,3.646417 c -0.0081,0.0046 -0.01595,0.0089 -0.02404,0.01321 l -0.0012,0.0011 c 0.0079,-0.0046 0.01723,-0.0097 0.02521,-0.01407 z" /><path
         id="path25951"
         style="fill:#ffffff;fill-opacity:1;stroke:#332255;stroke-width:0.529;stroke-linecap:round;stroke-linejoin:round;stroke-dasharray:none;stroke-opacity:1"
         d="m 81.981998,85.118392 c -1.453077,0 -4.046012,1.509946 -5.72702,2.336144 -1.681005,0.826199 -5.555939,0.227943 -6.467673,0.655282 -0.768741,0.360324 -1.075043,1.104696 -2.261251,1.688194 a 16.780376,6.4706866 0 0 0 15.425012,3.928171 16.780376,6.4706866 0 0 0 15.836971,-4.336293 c -0.637553,-0.514176 -1.971647,-0.846577 -2.702827,-1.023823 -0.940227,-0.227919 -2.592553,-1.053981 -4.444514,-1.908673 -1.851954,-0.854678 -4.473297,0.02825 -5.442013,-0.02873 -0.968717,-0.05698 -2.763613,-1.31027 -4.216685,-1.31027 z" /><path
         style="fill:#ffffff;fill-opacity:1;stroke:#332255;stroke-width:0.529165;stroke-linecap:round;stroke-linejoin:round;stroke-opacity:1"
         d="m 93.997978,86.693196 c -0.470114,0.142448 -1.88045,2.307659 -1.595535,2.478598 0.28492,0.170934 2.079895,0.341874 2.421794,-0.427346 0.341898,-0.769219 -0.356146,-2.193701 -0.826259,-2.051252 z"
         id="path25953"
         sodipodi:nodetypes="zssz" /><path
         style="fill:#ffffff;fill-opacity:1;stroke:#332255;stroke-width:0.529165;stroke-linecap:round;stroke-linejoin:round;stroke-opacity:1"
         d="m 76.608512,86.375991 c -0.332419,0.211525 -1.047627,2.276409 -0.443228,2.377132 0.604401,0.100726 2.034814,0.04028 2.276573,-0.221593 0.241761,-0.261888 1.047627,-1.81307 0.705134,-2.034667 -0.342493,-0.221598 -1.027479,-0.543921 -1.228948,-0.564066 -0.201465,-0.02015 -0.977112,0.231668 -1.309531,0.443194 z"
         id="path25955"
         sodipodi:nodetypes="zssssz" /><path
         style="fill:#ffffff;fill-opacity:1;stroke:#332255;stroke-width:0.529165;stroke-linecap:round;stroke-linejoin:round;stroke-opacity:1"
         d="m 76.069854,88.679471 c -0.655309,-0.185182 -1.139668,0.08547 -1.139668,0.08547"
         id="path25957" /><path
         style="fill:#ffffff;fill-opacity:1;stroke:#332255;stroke-width:0.529165;stroke-linecap:round;stroke-linejoin:round;stroke-opacity:1"
         d="m 79.146955,87.212257 c 0.170949,-0.441589 0.726538,-0.584038 0.726538,-0.584038"
         id="path25959" /><path
         style="fill:#ffffff;fill-opacity:1;stroke:#332255;stroke-width:0.529165;stroke-linecap:round;stroke-linejoin:round;stroke-opacity:1"
         d="M 92.438325,89.192284 C 91.911226,88.964368 91.526589,89.021347 91.526589,89.021347"
         id="path25961" /><path
         style="fill:#ffffff;fill-opacity:1;stroke:#332255;stroke-width:0.529165;stroke-linecap:round;stroke-linejoin:round;stroke-opacity:1"
         d="m 94.774641,88.82192 c 0.427377,-0.370364 0.569834,-0.327631 0.569834,-0.327631"
         id="path25963" /><path
         style="fill:#ffffff;fill-opacity:1;stroke:#332255;stroke-width:0.529165;stroke-linecap:round;stroke-linejoin:round;stroke-opacity:1"
         d="m 83.993749,90.868368 c -0.503667,-0.302175 0.564106,-1.349724 1.047627,-1.71234 0.483519,-0.362613 1.974371,-0.241741 2.175839,0.08058 0.201465,0.322323 1.631879,0.987114 0.946893,1.470601 -0.684988,0.483486 -1.511,0.483486 -1.934079,0.483486 -0.42308,0 -2.23628,-0.322328 -2.23628,-0.322327 z"
         id="path25965" /><path
         style="fill:#ffffff;fill-opacity:1;stroke:#332255;stroke-width:0.529165;stroke-linecap:round;stroke-linejoin:round;stroke-opacity:1"
         d="m 84.013895,90.868368 c -0.715205,-0.110795 -1.067772,0.09066 -1.067772,0.09066"
         id="path25967" /><path
         style="fill:#ffffff;fill-opacity:1;stroke:#332255;stroke-width:0.529165;stroke-linecap:round;stroke-linejoin:round;stroke-opacity:1"
         d="m 88.254768,90.60648 c 0.453299,-0.402903 0.745425,-0.372686 0.745425,-0.372686"
         id="path25969" /><ellipse
         style="fill:#ffffff;fill-opacity:1;stroke:#332255;stroke-width:0.529165;stroke-linecap:round;stroke-linejoin:round;stroke-opacity:1"
         id="ellipse25971"
         cx="77.758362"
         cy="91.643959"
         rx="0.61447304"
         ry="0.61442846" /><ellipse
         style="fill:#ffffff;fill-opacity:1;stroke:#332255;stroke-width:0.529165;stroke-linecap:round;stroke-linejoin:round;stroke-opacity:1"
         id="ellipse25973"
         cx="79.279434"
         cy="89.96183"
         rx="0.40293315"
         ry="0.40290397" /><ellipse
         style="fill:#ffffff;fill-opacity:1;stroke:#332255;stroke-width:0.529165;stroke-linecap:round;stroke-linejoin:round;stroke-opacity:1"
         id="ellipse25975"
         cx="77.536743"
         cy="88.078262"
         rx="0.29212654"
         ry="0.29210538" /><ellipse
         style="fill:#ffffff;fill-opacity:1;stroke:#332255;stroke-width:0.529165;stroke-linecap:round;stroke-linejoin:round;stroke-opacity:1"
         id="ellipse25977"
         cx="78.715324"
         cy="86.154396"
         rx="0.5439598"
         ry="0.54392034" /><ellipse
         style="fill:#ffffff;fill-opacity:1;stroke:#332255;stroke-width:0.529165;stroke-linecap:round;stroke-linejoin:round;stroke-opacity:1"
         id="ellipse25979"
         cx="78.100853"
         cy="82.860657"
         rx="0.29212654"
         ry="0.29210538" /><ellipse
         style="fill:#ffffff;fill-opacity:1;stroke:#332255;stroke-width:0.529165;stroke-linecap:round;stroke-linejoin:round;stroke-opacity:1"
         id="ellipse25981"
         cx="88.919601"
         cy="88.461021"
         rx="0.51373982"
         ry="0.51370257" /><ellipse
         style="fill:#ffffff;fill-opacity:1;stroke:#332255;stroke-width:0.529165;stroke-linecap:round;stroke-linejoin:round;stroke-opacity:1"
         id="ellipse25983"
         cx="90.783173"
         cy="87.624992"
         rx="0.2820532"
         ry="0.28203279" /><ellipse
         style="fill:#ffffff;fill-opacity:1;stroke:#332255;stroke-width:0.529165;stroke-linecap:round;stroke-linejoin:round;stroke-opacity:1"
         id="ellipse25985"
         cx="88.83902"
         cy="86.325623"
         rx="0.43315315"
         ry="0.43312174" /><ellipse
         style="fill:#ffffff;fill-opacity:1;stroke:#332255;stroke-width:0.529165;stroke-linecap:round;stroke-linejoin:round;stroke-opacity:1"
         id="ellipse25987"
         cx="90.329872"
         cy="84.552856"
         rx="0.57417977"
         ry="0.57413816" /><ellipse
         style="fill:#ffffff;fill-opacity:1;stroke:#332255;stroke-width:0.529165;stroke-linecap:round;stroke-linejoin:round;stroke-opacity:1"
         id="ellipse25989"
         cx="88.536819"
         cy="82.780067"
         rx="0.25183323"
         ry="0.25181496" /></g><path
       id="path25999"
       style="fill:#332255;stroke-width:0.999997"
       d="m 216.39583,45.563768 c -3.37658,1.520693 -7.04305,2.262191 -10.58874,3.281849 -4.28334,0.790646 -8.64671,0.253939 -12.96648,0.290842 -1.50527,0.211977 -4.0268,-0.04259 -4.21926,2.02727 -0.0702,2.704895 -0.58133,5.358331 -1.04567,8.014168 -0.30571,1.828585 0.37808,3.612783 0.32703,5.443957 0.005,1.32899 0.32165,2.634735 0.32776,3.945198 0.48247,1.275503 2.44969,1.292766 3.45613,0.861444 1.02925,-1.148797 1.77134,-2.527158 2.78265,-3.700592 1.78558,-2.276855 4.32602,-3.881926 7.11367,-4.624742 1.43445,-0.449504 2.86615,-1.036781 3.9169,-2.150631 1.82827,-1.401599 4.07277,-2.079349 6.22127,-2.82277 1.60812,-0.516947 3.32776,-0.794692 4.90082,-1.335538 -0.78574,-1.406419 -2.4203,0.375697 -3.60499,0.262136 -2.28507,0.628124 -4.4807,1.543574 -6.61532,2.564464 -1.49868,1.269618 -3.09394,2.466708 -5.01328,2.99586 -1.7884,0.507791 -3.46319,1.311027 -4.96275,2.375254 -0.9137,1.099793 -2.14485,2.484814 -3.44337,1.185873 -0.14188,0.376195 1.66731,1.071987 0.72621,1.179794 -0.36851,-0.875516 -2.45986,-0.763834 -0.82422,-0.114199 1.72881,0.425511 -0.52032,3.159494 -1.38077,1.520678 -1.08767,-0.289207 -1.61934,2.795286 -1.48594,0.789195 0.37313,-2.380324 2.07377,-4.196946 3.59858,-5.937536 1.02542,-1.210864 1.85896,-2.707715 1.69208,-4.350439 0.1584,-0.525835 -0.45,-2.871674 -0.47263,-1.203021 -0.0661,1.180769 -1.43531,-1.159307 -2.05896,-1.375626 -0.40448,-0.510458 -1.68018,-1.174702 -0.71697,-0.124245 0.63593,0.57101 0.85857,1.029107 -0.13561,0.510598 -1.26026,0.141149 1.58854,0.897527 1.56154,1.468817 -0.97482,1.288134 -2.72225,-0.03259 -3.46174,-0.998417 -0.74836,0.29716 1.38202,1.387058 1.40728,2.162268 0.71235,1.47892 -0.90721,2.615393 -0.74414,4.111884 -0.0948,1.653903 -0.0855,3.395147 -0.97449,4.857487 -0.071,1.106632 -0.51431,3.296372 -0.94974,1.087591 -0.36846,-1.731869 -0.43215,-3.492296 -0.52692,-5.253769 -0.70137,-2.611304 0.24925,-5.282416 0.57379,-7.845605 0.51793,-1.554115 -0.54487,-4.022271 1.38923,-4.749475 1.3441,-0.379129 3.52738,0.334184 4.16639,-0.312216 4.80948,0.08849 9.78563,0.543341 14.40438,-1.119285 2.60698,-0.75931 5.338,-1.272584 7.74379,-2.577972 0.17284,-0.09501 0.066,-0.352209 -0.11751,-0.340549 z m 0.10634,4.610078 c -2.98674,1.154097 -5.91484,2.535679 -8.51715,4.420697 -0.72978,0.254182 -1.0294,1.803745 -0.72572,2.270875 0.33942,-1.486531 1.21409,-2.738687 2.73874,-3.276736 2.06599,-1.271724 4.38404,-2.043463 6.58142,-3.048114 0.15023,-0.08752 0.10201,-0.352749 -0.0773,-0.366722 z m -26.07485,4.295358 c -0.65162,0.817003 2.14083,2.664178 0.92676,1.109101 -0.29938,-0.35984 -0.51385,-0.877897 -0.92676,-1.109101 z m 5.25882,1.2936 c -0.78031,0.478517 -0.10182,1.682089 0.14305,0.388378 0.099,-0.15007 0.0231,-0.352034 -0.14305,-0.388378 z m 6.78458,1.085235 c -0.94065,0.916949 1.85988,2.237906 0.39285,0.774863 -0.11379,-0.241601 -0.0851,-0.679892 -0.39285,-0.774863 z m -9.11773,0.640288 c 1.22315,0.538709 -1.59314,2.672727 -0.0763,1.987988 2.1432,-0.74847 0.31543,2.469545 -1.01759,1.897169 -1.93469,-0.204984 0.0666,-2.214529 0.0598,-3.31005 0.18249,-0.394089 0.6098,-0.604252 1.03413,-0.575107 z m 10.08572,0.818267 c -0.30431,0.852106 1.47211,0.178213 0.21502,0.0087 l -0.21501,-0.0087 z m -12.29299,3.442364 c 0.7484,0.01673 2.30608,0.02194 1.00968,0.854295 -0.45026,0.540991 -1.51847,2.176405 -1.06413,0.495176 0.0225,-0.449641 0.0307,-0.899927 0.0545,-1.349471 z m 0.22789,5.558572 c 2.04603,0.102938 -0.87819,3.228389 -0.94629,1.046167 0.0688,-0.482026 0.40577,-1.033906 0.94629,-1.046167 z m -1.70809,3.848242 c -1.13628,0.785725 1.21761,0.51044 -10e-6,2.6e-5 z m 0.69669,0.863848 c -1.58869,1.21162 1.67418,0.92122 0,0 z m -1.0548,0.355956 c -1.58565,0.440418 0.80047,1.510816 0.49703,0.36245 -0.14431,-0.132954 -0.28924,-0.330952 -0.49703,-0.36245 z m 0.69235,1.493283 c -1.4921,0.57721 0.98006,1.56889 0.28932,0.257518 l -0.1808,-0.237984 -0.10853,-0.01954 z m 1.04829,0.701062 c -1.429,1.212349 1.55207,0.888987 0,0 z m -2.4764,0.104183 c -1.64632,0.604235 0.97615,1.688736 0.59035,0.408054 -0.16724,-0.127738 -0.3521,-0.417688 -0.59035,-0.408054 z m 1.55182,1.278405 c -2.16285,1.089969 1.92321,1.095963 0,0 z" /><text
       xml:space="preserve"
       style="font-size:5.64444px;line-height:1.25;font-family:'Roboto Mono';-inkscape-font-specification:'Roboto Mono';text-align:center;text-anchor:middle;stroke-width:0.264583"
       x="174.41162"
       y="67.334061"
       id="text26003"><tspan
         sodipodi:role="line"
         id="tspan26001"
         style="text-align:center;text-anchor:middle;stroke-width:0.264583"
         x="174.41162"
         y="67.334061">'b</tspan></text><text
       xml:space="preserve"
       style="font-size:5.64444px;line-height:1.25;font-family:'Roboto Mono';-inkscape-font-specification:'Roboto Mono';text-align:center;text-anchor:middle;stroke-width:0.264583"
       x="102.61451"
       y="113.89707"
       id="text26007"><tspan
         sodipodi:role="line"
         id="tspan26005"
         style="text-align:center;text-anchor:middle;stroke-width:0.264583"
         x="102.61451"
         y="113.89707">((curry myfunc) 'a)</tspan></text><text
       xml:space="preserve"
       style="font-size:5.64444px;line-height:1.25;font-family:'Roboto Mono';-inkscape-font-specification:'Roboto Mono';text-align:center;text-anchor:middle;stroke-width:0.264583"
       x="181.98956"
       y="113.89707"
       id="text26011"><tspan
         sodipodi:role="line"
         id="tspan26009"
         style="text-align:center;text-anchor:middle;stroke-width:0.264583"
         x="181.98956"
         y="113.89707">(((curry myfunc) 'a) 'b)</tspan></text><path
       style="fill:#ffffff;fill-opacity:1;stroke:#332255;stroke-width:0.529;stroke-linecap:round;stroke-linejoin:round;stroke-dasharray:none;stroke-opacity:1"
       d="m 167.80902,80.502245 -2.69853,-2.840559"
       id="path26104" /><path
       style="fill:#ffffff;fill-opacity:1;stroke:#332255;stroke-width:0.529;stroke-linecap:round;stroke-linejoin:round;stroke-dasharray:none;stroke-opacity:1"
       d="m 176.04664,77.661686 -0.9942,-3.408669"
       id="path26106" /><path
       style="fill:#ffffff;fill-opacity:1;stroke:#332255;stroke-width:0.529;stroke-linecap:round;stroke-linejoin:round;stroke-dasharray:none;stroke-opacity:1"
       d="m 183.57411,76.241408 0.28406,-3.834751"
       id="path26108" /><path
       style="fill:#ffffff;fill-opacity:1;stroke:#332255;stroke-width:0.529;stroke-linecap:round;stroke-linejoin:round;stroke-dasharray:none;stroke-opacity:1"
       d="m 193.94215,78.2298 1.56231,-3.40867"
       id="path26110" /><path
       style="fill:#ffffff;fill-opacity:1;stroke:#332255;stroke-width:0.529;stroke-linecap:round;stroke-linejoin:round;stroke-dasharray:none;stroke-opacity:1"
       d="m 198.91313,80.218188 2.98258,-3.550695"
       id="path26112" /></g></svg>
